<svg width="245" height="205" viewBox="0 0 245 205" fill="none" xmlns="http://www.w3.org/2000/svg">
<path d="M194.35 7.68604C193.751 6.84349 193.948 4.67153 194.737 4.10868C195.669 3.44225 197.921 3.76338 199.022 3.76338C199.89 3.76338 200.998 3.73921 201.604 4.67498C202.117 5.47264 201.985 6.79169 201.985 6.79169" stroke="#FDFDFE" stroke-width="2" stroke-linecap="round" stroke-linejoin="round"/>
<path d="M195.007 4.36583C192.916 4.44685 192.778 3.42451 193.18 2.65679C193.845 1.37983 196.125 1.72704 199.009 1.73476C204.553 1.75405 202.93 4.26553 202.221 4.68604" stroke="#FDFDFE" stroke-width="2" stroke-linecap="round" stroke-linejoin="round"/>
<path d="M220.437 19.7741C219.154 18.439 217.505 17.5187 215.701 17.1307C214.88 16.0946 214.089 14.9367 213.59 14.2968C209.655 9.25762 202.906 5.91719 196.319 6.83895C191.333 7.54741 186.074 10.7202 184.546 15.5995C183.891 17.683 183.713 19.9912 184.644 22.0175C185.223 23.2821 186.74 26.6187 189.895 27.35C190.343 26.0259 190.857 24.7254 191.435 23.4535C194.598 25.1751 200.197 24.4057 201.88 21.9299C202.195 25.358 207.048 24.3638 209.542 23.7506C209.542 25.1561 210.922 26.7977 212.035 27.5595C212.478 27.8572 212.952 28.1038 213.45 28.2946C213.113 29.6278 212.644 31.0447 212.114 32.5035C215.984 33.4634 220.816 30.5457 221.837 25.9141C222.284 23.8458 221.811 21.3395 220.437 19.7741Z" fill="#0A3E66" stroke="#0A3E66" stroke-width="2" stroke-linecap="round" stroke-linejoin="round"/>
<path d="M158 86.686C159.271 83.9933 160.321 79.9875 163 78.686" stroke="#FDFDFE" stroke-width="2" stroke-linecap="round" stroke-linejoin="round"/>
<path d="M174 66.686C170.807 66.7399 167.643 67.3192 164.631 68.4015C159.497 70.3172 154.096 75.2671 150.536 79.3593C146.726 83.7537 140.832 88.6507 139 89.686" stroke="#FDFDFE" stroke-width="2" stroke-linecap="round" stroke-linejoin="round"/>
<path d="M21 188.686C19.515 193.782 16.2582 203.686 16.2582 203.686H10C10 203.686 10.9664 193.649 11.5007 188.764" stroke="#FDFDFE" stroke-width="2" stroke-linecap="round" stroke-linejoin="round"/>
<path d="M92 188.363C93.4845 193.569 96.7401 203.686 96.7401 203.686H103C103 203.686 102.038 192.677 101.5 187.686" stroke="#FDFDFE" stroke-width="2" stroke-linecap="round" stroke-linejoin="round"/>
<path d="M75.3523 188.686C76.033 193.231 77 203.686 77 203.686H70.8579C70.1579 200.781 66 188.686 66 188.686" stroke="#FDFDFE" stroke-width="2" stroke-linecap="round" stroke-linejoin="round"/>
<path d="M212 187.686C213.434 192.747 216.961 203.686 216.961 203.686H223C223 203.686 222.071 192.983 221.555 188.131" stroke="#FDFDFE" stroke-width="2" stroke-linecap="round" stroke-linejoin="round"/>
<path d="M141.965 187.686C141.307 192.2 140 203.686 140 203.686H145.931C146.607 200.801 151 187.686 151 187.686" stroke="#FDFDFE" stroke-width="2" stroke-linecap="round" stroke-linejoin="round"/>
<path d="M235.797 73.3058C231.842 71.7646 225.961 71.686 220.497 71.686H220.234C220.099 72.898 219.904 74.1998 219.757 75.5801C218.586 86.5742 214.316 97.8562 210.823 108.319V108.615H141.64C138.366 108.42 134.039 108.79 131.655 111.338C129.54 113.582 130.509 117.237 130.701 120.192C131.05 125.579 131.996 131.007 132.826 136.378L133.27 139.169C130.99 139.603 130.476 142.536 127.839 142.509C126.078 142.509 125.282 141.062 123.731 140.665C118.811 139.412 117.196 145.655 112.731 145.218C110.249 144.978 109.257 143.662 106.516 145.427C105.637 145.996 104.747 147.702 104.011 148.046C103.065 148.472 88.9028 149.194 86.259 149.512C85.3352 149.624 83.2959 149.452 82.5035 148.764C81.7112 148.076 80.9375 143.864 80.4906 139.595C80.0437 135.327 78.5378 129.836 72.7845 129.548C67.0311 129.26 53.3689 128.721 43.1165 129.709C31.2155 130.857 1.63394 124.621 1.18329 143.519C0.939185 153.593 0.66128 163.899 2.35498 173.905C2.89201 177.1 3.61306 181.926 5.90012 184.877C6.41598 185.555 7.05243 186.133 7.77784 186.583C10.4066 188.191 14.3085 187.567 17.2115 187.567H35.3277C53.8683 187.567 71.8231 187.32 90.3599 187.432C93.0864 187.432 95.8016 187.226 98.3778 186.388H220.632C227.189 186.388 228.245 179.401 230.021 173.127C232.83 163.293 233.998 153.088 235.523 142.97C236.841 134.22 238.309 125.298 240.311 116.687C242.455 107.462 242.917 98.1929 243.86 88.7999C244.569 81.786 242.692 75.9804 235.797 73.3058Z" fill="#E8EBF5" stroke="#E8EBF5" stroke-width="2" stroke-linecap="round" stroke-linejoin="round"/>
<g opacity="0.4">
<path opacity="0.4" d="M187 39.686L189 41.686" stroke="#C91212" stroke-width="2" stroke-linecap="round" stroke-linejoin="round"/>
<path opacity="0.4" d="M189 37.686L193 42.686" stroke="#C91212" stroke-width="2" stroke-linecap="round" stroke-linejoin="round"/>
<path opacity="0.4" d="M192 37.686L196 42.686" stroke="#C91212" stroke-width="2" stroke-linecap="round" stroke-linejoin="round"/>
<path opacity="0.4" d="M196 37.686L200 43.686" stroke="#C91212" stroke-width="2" stroke-linecap="round" stroke-linejoin="round"/>
<path opacity="0.4" d="M201 38.686L203 42.686" stroke="#C91212" stroke-width="2" stroke-linecap="round" stroke-linejoin="round"/>
</g>
<path d="M131.2 111.686C130.074 108.156 133.883 102.091 137.955 100.259C142.533 98.2097 149.772 95.2977 155 95.729" stroke="#FDFDFE" stroke-width="2" stroke-linecap="round" stroke-linejoin="round"/>
<path d="M170 91.5043V91.4021C167.337 84.3649 150.199 87.0337 144.764 87.9497C133.294 89.8841 124.047 98.1704 112.514 101.475C110.48 102.062 102.905 102.611 98.2876 105.181C97.0032 105.181 95.7301 105.321 94.4909 105.382C90.3815 105.582 85.3908 106.733 81.9292 107.195C79.4132 106.941 76.5769 107.078 74.0533 107.195C71.7406 107.301 58 108.857 58 108.857C60.8664 109.614 63.0473 112.642 64.2149 115.546C65.8195 119.505 66.4749 125.206 66.1961 129.552V130.172C68.8328 130.252 71.1266 130.358 72.7651 130.441C78.5355 130.733 80.0459 136.286 80.4942 140.609C80.9424 144.932 81.6882 149.145 82.5131 149.887C83.3379 150.629 85.3493 150.773 86.2797 150.644C88.9163 150.322 103.135 149.592 104.084 149.16C104.838 148.823 105.715 147.097 106.597 146.51C109.346 144.724 110.341 146.056 112.83 146.298C117.309 146.741 118.929 140.423 123.863 141.691C125.418 142.093 126.217 143.546 127.984 143.558C130.62 143.558 131.155 140.692 133.441 140.253" stroke="#FDFDFE" stroke-width="2" stroke-linecap="round" stroke-linejoin="round"/>
<path d="M138.502 174.686C137.824 169.04 133.523 143.338 132.508 136.668C131.68 131.263 130.735 125.801 130.387 120.38C130.196 117.407 129.229 113.744 131.339 111.471C133.718 108.907 138.034 108.535 141.301 108.73H215.038C222.258 108.73 222.333 118.306 223 122.955" stroke="#FDFDFE" stroke-width="2" stroke-linecap="round" stroke-linejoin="round"/>
<path d="M211.123 108.686C214.73 98.2663 219.139 87.054 220.349 76.117C221.017 70.0996 222.634 65.5298 215.696 63.8701C213.136 63.2561 208.137 62.6272 206 62.6904" stroke="#FDFDFE" stroke-width="2" stroke-linecap="round" stroke-linejoin="round"/>
<path d="M196 74.686C194.578 79.4712 189.645 83.2523 194.612 88.064C190.572 85.0937 186.392 87.8784 186.486 93.103C185.681 89.2537 177.869 91.1064 175.433 91.3299C170.338 91.7959 165.534 91.7656 160.711 93.4364C156.962 94.736 154.118 95.5202 153.561 99.5931C153.244 101.908 152.4 106.902 153.709 108.686" stroke="#FDFDFE" stroke-width="2" stroke-linecap="round" stroke-linejoin="round"/>
<path d="M207 90.9828C207.322 90.8374 207.658 90.7378 208 90.686" stroke="#FDFDFE" stroke-width="2" stroke-linecap="round" stroke-linejoin="round"/>
<path d="M200 85.686C199.683 85.3099 199.348 84.9755 199 84.686" stroke="#FDFDFE" stroke-width="2" stroke-linecap="round" stroke-linejoin="round"/>
<path d="M202 80.686C202.563 80.4041 202.912 80.0552 203 79.686" stroke="#FDFDFE" stroke-width="2" stroke-linecap="round" stroke-linejoin="round"/>
<path d="M213 73.686C213.217 73.6486 213.423 73.5368 213.599 73.3616C213.774 73.1863 213.912 72.9536 214 72.686" stroke="#FDFDFE" stroke-width="2" stroke-linecap="round" stroke-linejoin="round"/>
<path d="M211 68.686V67.686" stroke="#FDFDFE" stroke-width="2" stroke-linecap="round" stroke-linejoin="round"/>
<path d="M217 66.979C217.354 66.9497 217.696 66.8495 218 66.686" stroke="#FDFDFE" stroke-width="2" stroke-linecap="round" stroke-linejoin="round"/>
<path d="M215 85.7636C215.433 85.6095 215.831 85.6734 216 86.0603" stroke="#FDFDFE" stroke-width="2" stroke-linecap="round" stroke-linejoin="round"/>
<path d="M206 74.686L205 73.686" stroke="#FDFDFE" stroke-width="2" stroke-linecap="round" stroke-linejoin="round"/>
<path d="M194.413 107.686C192.567 102.338 197.251 100.998 201.686 100.622C207.07 100.162 209.443 94.2853 215 95.998" stroke="#FDFDFE" stroke-width="2" stroke-linecap="round" stroke-linejoin="round"/>
<path d="M168 105.686C167.677 105.829 167.342 105.927 167 105.979" stroke="#FDFDFE" stroke-width="2" stroke-linecap="round" stroke-linejoin="round"/>
<path d="M161.297 99.686C161.124 99.3863 161.022 99.0422 161 98.686" stroke="#FDFDFE" stroke-width="2" stroke-linecap="round" stroke-linejoin="round"/>
<path d="M165 96.686V95.686" stroke="#FDFDFE" stroke-width="2" stroke-linecap="round" stroke-linejoin="round"/>
<path d="M177 100.686V101.686" stroke="#FDFDFE" stroke-width="2" stroke-linecap="round" stroke-linejoin="round"/>
<path d="M187 99.7499C187.171 99.6773 187.35 99.6664 187.524 99.7181C187.698 99.7697 187.862 99.8824 188 100.047" stroke="#FDFDFE" stroke-width="2" stroke-linecap="round" stroke-linejoin="round"/>
<path d="M192 92.686L193 91.686" stroke="#FDFDFE" stroke-width="2" stroke-linecap="round" stroke-linejoin="round"/>
<path d="M181 93.686C181 93.213 181.342 92.813 182 92.686" stroke="#FDFDFE" stroke-width="2" stroke-linecap="round" stroke-linejoin="round"/>
<path d="M143 102.686C139.876 102.656 134.198 106.299 134 109.686" stroke="#FDFDFE" stroke-width="2" stroke-linecap="round" stroke-linejoin="round"/>
<path d="M197.853 67.3905C192.106 71.3777 187.081 78.3207 184.245 84.686C180.358 84.0109 175.134 83.8008 171 83.5795C171.864 78.0581 178.326 69.8736 182.718 66.7416C185.611 64.6786 188.653 65.7888 192.046 66.6441C196.162 67.6831 198.987 67.6831 202.564 65.1212C205.261 63.1932 206.84 61.4153 206.994 57.7131C207.132 54.3673 205.04 53.4745 201.913 53.7259C197.853 54.0522 193.367 55.8601 189.236 56.6816C185.659 57.3905 182.595 56.7378 179.134 56.9742C175.542 57.2217 173.72 61.9929 174.27 65.5525C174.921 69.7573 177.203 68.1969 180.294 68.4895" stroke="#FDFDFE" stroke-width="2" stroke-linecap="round" stroke-linejoin="round"/>
<path d="M182 84.686C181.523 85.2925 181.184 85.9711 181 86.686" stroke="#FDFDFE" stroke-width="2" stroke-linecap="round" stroke-linejoin="round"/>
<path d="M178 87.686C178.156 86.6354 178.494 85.6201 179 84.686" stroke="#FDFDFE" stroke-width="2" stroke-linecap="round" stroke-linejoin="round"/>
<path d="M175 83.686C174.457 84.9562 174.179 86.7546 174 87.686" stroke="#FDFDFE" stroke-width="2" stroke-linecap="round" stroke-linejoin="round"/>
<path d="M172 83.686C171.593 84.6491 171.259 85.653 171 86.686" stroke="#FDFDFE" stroke-width="2" stroke-linecap="round" stroke-linejoin="round"/>
<path d="M26 129.798C32.6465 129.798 38.9645 131.133 43.2281 130.529C50.0257 129.56 59.4668 129.582 66 129.832" stroke="#FDFDFE" stroke-width="2" stroke-linecap="round" stroke-linejoin="round"/>
<path d="M103.367 148.686C103.866 155.859 103.972 167.966 103.979 175.078C103.979 179.905 104.443 184.157 101 186.686" stroke="#FDFDFE" stroke-width="2" stroke-linecap="round" stroke-linejoin="round"/>
<path d="M77.5557 186.686C78.2333 169.087 78.6154 150.021 75 133.686" stroke="#FDFDFE" stroke-width="2" stroke-linecap="round" stroke-linejoin="round"/>
<path d="M110 109.686C107.427 106.933 101.934 104.978 98 104.686" stroke="#FDFDFE" stroke-width="2" stroke-linecap="round" stroke-linejoin="round"/>
<path d="M20 134.686C21.5686 132.6 24.7059 130.419 27 129.686" stroke="#FDFDFE" stroke-width="2" stroke-linecap="round" stroke-linejoin="round"/>
<path d="M28 133.686C28.3399 132.373 30.7233 129.965 32 129.686" stroke="#FDFDFE" stroke-width="2" stroke-linecap="round" stroke-linejoin="round"/>
<path d="M81 127.686C95.4981 127.686 99.4434 127.629 103.741 131.002C106.889 133.471 107.734 138.534 110 141.686" stroke="#FDFDFE" stroke-width="2" stroke-linecap="round" stroke-linejoin="round"/>
<path d="M115 125.686C116.88 128.505 117.902 135.297 121 137.686" stroke="#FDFDFE" stroke-width="2" stroke-linecap="round" stroke-linejoin="round"/>
<path d="M119 118.686C122 120.929 123.433 133.183 127 135.686" stroke="#FDFDFE" stroke-width="2" stroke-linecap="round" stroke-linejoin="round"/>
<path d="M82 106.686C86.2719 107.1 90.2002 108.624 93 111.686" stroke="#FDFDFE" stroke-width="2" stroke-linecap="round" stroke-linejoin="round"/>
<path d="M44 134.686C45.2692 132.631 47.5756 130.01 50 129.686" stroke="#FDFDFE" stroke-width="2" stroke-linecap="round" stroke-linejoin="round"/>
<path d="M212.434 27.686C211.43 31.7084 209.202 36.4896 207.757 41.0498C209.952 41.0867 214.593 41.3592 213.937 44.8623C213.401 47.7354 208.797 47.8275 206.63 47.8091C206.003 49.2825 205 52.686 205 52.686" stroke="#FDFDFE" stroke-width="2" stroke-linecap="round" stroke-linejoin="round"/>
<path d="M180 56.686C180 56.686 182.319 50.0433 183.183 46.4837C184.135 42.5603 185.643 38.8095 186.991 34.9949C188.182 31.5628 189.309 27.2531 191 23.686" stroke="#FDFDFE" stroke-width="2" stroke-linecap="round" stroke-linejoin="round"/>
<path d="M189 20.686C190.524 24.6313 199 24.2989 201.114 21.2496C201.421 24.5012 206.155 23.5582 208.587 22.9766C208.587 24.3097 209.934 25.8668 211.018 26.5894C212.183 27.3806 213.586 27.7627 215 27.6733" stroke="#FDFDFE" stroke-width="2" stroke-linecap="round" stroke-linejoin="round"/>
<path d="M189 37.686L190 35.686" stroke="#FDFDFE" stroke-width="2" stroke-linecap="round" stroke-linejoin="round"/>
<path d="M138 96.686C138.883 97.1591 140.161 97.6765 139.983 98.686" stroke="#FDFDFE" stroke-width="2" stroke-linecap="round" stroke-linejoin="round"/>
<path d="M144 93.686C144.744 94.183 147.714 96.0802 146.841 96.686" stroke="#FDFDFE" stroke-width="2" stroke-linecap="round" stroke-linejoin="round"/>
<path d="M199 38.686L200 36.686" stroke="#FDFDFE" stroke-width="2" stroke-linecap="round" stroke-linejoin="round"/>
<path d="M187 45.686C187 45.686 180.896 41.0257 177.978 38.942C175.299 37.03 172.673 34.9612 170.021 33.068C168.884 35.2338 166.152 33.0194 167.259 30.876C168.752 27.9819 172.234 31.0216 170.021 33.068" fill="#C91212"/>
<path d="M187 45.686C187 45.686 180.896 41.0257 177.978 38.942C175.299 37.03 172.673 34.9612 170.021 33.068C168.884 35.2338 166.152 33.0194 167.259 30.876C168.752 27.9819 172.234 31.0216 170.021 33.068" stroke="#C91212" stroke-width="2" stroke-linecap="round" stroke-linejoin="round"/>
<path d="M183 45.3151C183 45.3151 183.916 46.8725 184.763 46.9743C186.029 47.1134 187.758 44.4194 188.894 45.2778C189.574 45.7868 188.514 46.8895 188.913 47.4052C189.673 48.3145 190.954 46.7673 191.448 46.2753C192.463 45.2575 194.279 43.7917 195.214 45.4034C195.792 46.4043 195.043 47.2355 197 46.9879" stroke="#FDFDFE" stroke-width="2" stroke-linecap="round" stroke-linejoin="round"/>
<path d="M168.67 25.686C168.216 24.9493 167.988 24.1574 168 23.3587C168.013 22.5601 168.266 21.7716 168.743 21.0416C169.662 19.6088 167.786 18.1569 168.239 16.686" stroke="#FDFDFE" stroke-width="2" stroke-linecap="round" stroke-linejoin="round"/>
<path d="M171.229 26.686C170.806 25.5211 170.972 24.2988 171.704 23.2C171.928 22.7933 172.027 22.3619 171.994 21.9305C171.961 21.4991 171.796 21.0762 171.51 20.686" stroke="#FDFDFE" stroke-width="2" stroke-linecap="round" stroke-linejoin="round"/>
<path d="M165.466 26.686C164.473 25.2978 165.304 23.9096 165.784 22.69C166.125 21.6964 166.061 20.6553 165.6 19.686" stroke="#FDFDFE" stroke-width="2" stroke-linecap="round" stroke-linejoin="round"/>
<path d="M199 71.686C199.279 71.2074 199.623 70.8629 200 70.686" stroke="#FDFDFE" stroke-width="2" stroke-linecap="round" stroke-linejoin="round"/>
<path d="M203 65.686C203.381 65.7621 203.727 65.9114 204 66.118" stroke="#FDFDFE" stroke-width="2" stroke-linecap="round" stroke-linejoin="round"/>
<path d="M210 80.686C210.317 80.3023 210.652 79.9678 211 79.686" stroke="#FDFDFE" stroke-width="2" stroke-linecap="round" stroke-linejoin="round"/>
<path d="M191 79.686C191.604 80.0907 192.277 80.4273 193 80.686" stroke="#FDFDFE" stroke-width="2" stroke-linecap="round" stroke-linejoin="round"/>
<path d="M188 83.686C188.393 83.4185 188.732 83.0792 189 82.686" stroke="#FDFDFE" stroke-width="2" stroke-linecap="round" stroke-linejoin="round"/>
<path d="M165 82.686C165.271 83.1063 165.612 83.4475 166 83.686" stroke="#FDFDFE" stroke-width="2" stroke-linecap="round" stroke-linejoin="round"/>
<path d="M166 80.686C166.027 80.4291 166.141 80.1893 166.323 80.0072C166.506 79.8251 166.745 79.7116 167 79.686" stroke="#FDFDFE" stroke-width="2" stroke-linecap="round" stroke-linejoin="round"/>
<path d="M172 75.686C172.305 75.8275 172.644 75.9257 173 75.9753" stroke="#FDFDFE" stroke-width="2" stroke-linecap="round" stroke-linejoin="round"/>
<path d="M174 71.686C174.008 71.3441 174.056 71.0063 174.143 70.686" stroke="#FDFDFE" stroke-width="2" stroke-linecap="round" stroke-linejoin="round"/>
<path d="M171 67.686C171.105 67.3414 171.21 67.0124 171.289 66.686" stroke="#FDFDFE" stroke-width="2" stroke-linecap="round" stroke-linejoin="round"/>
<path d="M163 68.686C163.292 68.8592 163.629 69.0047 164 69.1173" stroke="#FDFDFE" stroke-width="2" stroke-linecap="round" stroke-linejoin="round"/>
<path d="M159 76.1173C159.365 75.9998 159.702 75.8547 160 75.686" stroke="#FDFDFE" stroke-width="2" stroke-linecap="round" stroke-linejoin="round"/>
<path d="M165 72.686C165.302 72.8375 165.658 72.8882 166 72.8288" stroke="#FDFDFE" stroke-width="2" stroke-linecap="round" stroke-linejoin="round"/>
<path d="M218 77.9527C218.675 77.9433 219.346 77.8538 220 77.686" stroke="#FDFDFE" stroke-width="2" stroke-linecap="round" stroke-linejoin="round"/>
<path d="M199 98.686C199.07 98.3312 199.167 97.9948 199.289 97.686" stroke="#FDFDFE" stroke-width="2" stroke-linecap="round" stroke-linejoin="round"/>
<path d="M184.428 107.686L184 108.686" stroke="#FDFDFE" stroke-width="2" stroke-linecap="round" stroke-linejoin="round"/>
<path d="M180 106.686H179" stroke="#FDFDFE" stroke-width="2" stroke-linecap="round" stroke-linejoin="round"/>
<path d="M174.002 93.686C173.987 93.4703 174.076 93.2572 174.256 93.0774C174.435 92.8976 174.696 92.7606 175 92.686" stroke="#FDFDFE" stroke-width="2" stroke-linecap="round" stroke-linejoin="round"/>
<path d="M160.431 94.686L160 93.686" stroke="#FDFDFE" stroke-width="2" stroke-linecap="round" stroke-linejoin="round"/>
<path d="M157 105.686C156.73 106.06 156.393 106.397 156 106.686" stroke="#FDFDFE" stroke-width="2" stroke-linecap="round" stroke-linejoin="round"/>
<path d="M153 101.686C153.338 101.742 153.673 101.839 154 101.975" stroke="#FDFDFE" stroke-width="2" stroke-linecap="round" stroke-linejoin="round"/>
<path d="M146 84.686C145.601 84.4259 145.261 84.0854 145 83.686" stroke="#FDFDFE" stroke-width="2" stroke-linecap="round" stroke-linejoin="round"/>
<path d="M153 84.9753C153.178 85.0024 153.359 84.9907 153.531 84.9407C153.704 84.8908 153.864 84.8039 154 84.686" stroke="#FDFDFE" stroke-width="2" stroke-linecap="round" stroke-linejoin="round"/>
<path d="M154.289 79.686C154.151 79.371 154.054 79.0341 154 78.686" stroke="#FDFDFE" stroke-width="2" stroke-linecap="round" stroke-linejoin="round"/>
<path d="M45.283 128.419C42.5957 123.024 40.6369 117.741 39.5763 111.438C38.9573 107.771 36.4059 96.6559 39.5008 93.827C47.1249 86.8641 52.9335 113.848 53.6959 118.694C54.0922 121.197 54.3262 126.602 52.9222 128.686" stroke="#FDFDFE" stroke-width="2" stroke-linecap="round" stroke-linejoin="round"/>
<path d="M26.1878 129.686C23.4703 124.559 21.5701 119.041 20.5557 113.33C19.9448 109.881 17.4268 99.4208 20.4812 96.7593C28.0018 90.2097 33.7345 115.591 34.4907 120.155C34.8632 122.512 35.6081 127.79 34.0586 129.653" stroke="#FDFDFE" stroke-width="2" stroke-linecap="round" stroke-linejoin="round"/>
<path d="M39 106.686C37.9704 103.638 34.4457 99.9213 31.3837 98.0033C28.3218 96.0853 23.9834 95.5434 23 95.7163" stroke="#FDFDFE" stroke-width="2" stroke-linecap="round" stroke-linejoin="round"/>
<path d="M35 120.686C36.6801 119.751 39.1765 118.141 40 116.686" stroke="#FDFDFE" stroke-width="2" stroke-linecap="round" stroke-linejoin="round"/>
<path d="M42 92.686C48.0949 94.0997 53.6115 101.415 56.3497 106.838C57.382 108.88 56.9903 111.139 56.5071 112.728C56.0239 114.318 54.1057 117.983 53.3113 118.686" stroke="#FDFDFE" stroke-width="2" stroke-linecap="round" stroke-linejoin="round"/>
</svg>
