<svg width="263" height="226" viewBox="0 0 263 226" fill="none" xmlns="http://www.w3.org/2000/svg">
<path d="M177.388 112.849C173.944 110.869 170.584 109.635 169.208 105.897C169.148 105.736 169.11 105.569 169.095 105.399C168.985 105.372 167.76 104.148 167.798 103.437C167.681 103.15 169.185 102.701 169.102 102.4C168.962 101.895 167.847 100.285 168.15 99.8085C168.15 99.6772 170.07 99.6046 170.686 99.729C173.252 100.261 175.717 100.876 178.552 101.045C178.442 100.741 179.274 100.061 179.228 99.7429C178.964 97.8563 177.663 96.0146 176.787 94.3146C174.977 90.7672 172.869 87.3535 170.482 84.1042C169.537 83.738 168.686 83.3372 167.904 83.8486C163.856 86.4953 163.792 91.0874 162.877 95.251C162.835 95.3028 162.363 98.8168 162.499 100.462C162.589 102.262 162.526 104.067 162.31 105.859C162.291 106.042 162 114.338 162 114.338C162.127 114.876 162.36 115.389 162.688 115.851C164.578 118.768 166.468 119.804 166.468 119.804C170.327 119.372 178.703 118.422 182.573 117.842C183.416 117.714 184.497 117.472 185 117.088C182.577 115.91 179.697 114.179 177.388 112.849Z" fill="#ABDDDF"/>
<path d="M257.901 197.143C257.901 181.106 257.166 165.083 256.629 149.057C256.126 134.013 256.857 119.299 256.857 104.307C256.857 97.4476 256.476 88.2004 256.476 83.7226C256.476 79.2448 256.381 61.9167 255.794 51.2116C255.379 43.634 255.272 34.1057 255.272 27.1217C255.272 27.1217 248.667 26.8891 244.175 27.0384C243.451 27.0592 242.728 27.0766 242 27.0905V27.4688C242 27.4688 242.103 44.7066 242.103 53.1555C242.103 69.1888 242.834 85.2152 243.371 101.242C243.874 116.286 243.143 131 243.143 145.988C243.143 152.851 243.524 162.095 243.524 166.576C243.524 171.057 243.623 188.378 244.21 199.083C244.621 206.661 244.731 215.842 244.731 222.83H258C258 222.83 257.901 205.574 257.901 197.143Z" fill="#4986CB"/>
<path d="M242.153 26.9884C242.153 26.9884 242.261 44.2686 242.261 52.7382C242.261 68.811 243.023 84.8768 243.583 100.943C244.107 116.024 243.344 130.774 243.344 145.799C243.344 152.679 243.741 161.945 243.741 166.438C243.741 170.93 243.845 188.294 244.456 199.025C244.885 206.621 245 215.825 245 222.83H238.843C238.843 215.825 238.731 206.621 238.299 199.025C237.691 188.294 237.588 170.926 237.588 166.438C237.588 161.949 237.191 152.679 237.191 145.799C237.191 130.774 237.953 116.024 237.429 100.943C236.869 84.8768 236.103 68.811 236.103 52.7382C236.103 44.2825 236 26.9884 236 26.9884H242.153Z" fill="#FAB550"/>
<path d="M169.008 120.732C169.008 122.049 168.974 124.023 169.046 125.31C178.462 125.77 188.742 123.559 198 124.095" stroke="#4986CB" stroke-width="1.5" stroke-linecap="round" stroke-linejoin="round"/>
<path d="M186.528 125.865C184.533 125.928 180.484 128.276 182.592 130.588C184.201 131.616 185.844 127.243 187.283 125.865C188.363 129.81 193.289 131.666 191.68 127.632C191.17 126.356 188.307 125.49 187.083 125.373C186.376 128.389 184.915 133.08 185.232 135.583" stroke="#4986CB" stroke-width="1.5" stroke-linecap="round" stroke-linejoin="round"/>
<path d="M187.981 132.798C188.104 130.658 187.608 128.291 187 126.301" stroke="#4986CB" stroke-width="1.5" stroke-linecap="round" stroke-linejoin="round"/>
<path d="M169.948 126.301C169.948 140.259 169.426 154.233 169.426 168.229C169.426 179.351 168.284 190.348 168.383 201.512C168.413 205.017 166.209 211.968 172.054 211.683C175.618 211.513 181.39 211.184 185 211.184" stroke="#4986CB" stroke-width="1.5" stroke-linecap="round" stroke-linejoin="round"/>
<path d="M184 139.296C184.648 139.504 185.325 139.584 186 139.532" stroke="#4986CB" stroke-width="1.5" stroke-linecap="round" stroke-linejoin="round"/>
<path d="M185.259 140.076C185.319 150.555 185.765 160.871 185.592 171.374C185.446 180.247 185.323 189.127 185.161 197.964C185.083 202.268 185 209.615 185 211.207C185 212.8 184.944 213.134 187.043 213.403C189.9 213.772 193.382 213.337 196.283 213.204C198.926 213.086 204.905 213.089 208.114 213.103C208.694 213.105 209.253 212.902 209.677 212.535C210.102 212.168 210.361 211.665 210.401 211.127C210.58 208.628 210.835 204.338 210.697 201.533C210.532 198.323 210.674 195.072 210.674 191.859V169.113C210.674 157.18 211.188 142.871 210.925 130.942" stroke="#4986CB" stroke-width="1.5" stroke-linecap="round" stroke-linejoin="round"/>
<path d="M212.343 107.582C212.396 109.097 212.205 110.746 212.579 112.187C212.894 113.386 215.016 115.65 215.016 115.65C212.579 112.187 205.405 109.403 199.162 107.132C193.174 104.949 184.888 100.035 178.851 98.4565C178.963 99.1209 179.072 101.269 179.072 101.269C175.393 101.568 171.912 99.9365 168.121 100.098C168.32 101.94 171.796 103.965 173.331 104.844C172.287 104.436 168.915 102.088 168.073 103.789C167.324 105.311 172.597 107.934 173.495 108.753C171.969 108.401 171.145 106.703 169.409 107.062C169.588 110.064 177.71 113.295 180.026 114.595C187.702 118.909 195.528 123.517 203.56 127.166C208.762 129.528 215.079 134.112 220.776 132.439C229.043 129.999 226.921 116.638 226.273 109.769" stroke="#4986CB" stroke-width="1.5" stroke-linecap="round" stroke-linejoin="round"/>
<path d="M210.607 97.2708C210.704 99.6792 210.983 102.201 211.092 104.444C211.216 107.197 212.153 106.932 215.182 107.606C217.063 108.026 222.862 108.9 226.47 108.608C226.913 108.571 227.321 108.375 227.607 108.064C227.892 107.753 228.032 107.351 227.994 106.946C227.482 101.159 226.636 93.5549 225.97 90.5753C224.939 85.958 222.583 78.3268 216.721 76.3966C212.327 74.9417 207.678 74.2418 203.006 74.3322C200.714 77.2877 199.683 78.5745 197.268 81.4508C195.642 83.3845 193.268 85.7619 192 87.4065" stroke="#4986CB" stroke-width="1.5" stroke-linecap="round" stroke-linejoin="round"/>
<path d="M200 91.1857C201.859 90.8382 207 91.1857 207 91.1857" stroke="#4986CB" stroke-width="1.5" stroke-linecap="round" stroke-linejoin="round"/>
<path d="M202.383 89.1749C201.715 91.158 202.124 93.5688 202.124 95.672" stroke="#4986CB" stroke-width="1.5" stroke-linecap="round" stroke-linejoin="round"/>
<path d="M195 88.317C192.664 88.1712 190.319 88.2527 188 88.5602" stroke="#4986CB" stroke-width="1.5" stroke-linecap="round" stroke-linejoin="round"/>
<path d="M191 88.2468C189.158 84.8827 184.129 76.4 184.129 76.4C184.129 76.4 182.891 75.7286 178.798 76.7357C176.685 77.307 174.761 78.4102 173.217 79.9357C171.674 81.4612 170.565 83.3558 170 85.4313" stroke="#4986CB" stroke-width="1.5" stroke-linecap="round" stroke-linejoin="round"/>
<path d="M186 77.3746C190.92 82.4109 198.348 78.9414 202 75.2526" stroke="#4986CB" stroke-width="1.5" stroke-linecap="round" stroke-linejoin="round"/>
<path d="M202.379 55.7614C202.359 57.4628 202.185 62.0738 202.185 62.0738C202.185 62.0738 204.053 62.1113 205.261 63.3568C207.46 65.6231 204.26 67.0456 202.065 66.9231C201.942 69.4481 202.032 74.3245 202.032 74.3245" stroke="#4986CB" stroke-width="1.5" stroke-linecap="round" stroke-linejoin="round"/>
<path d="M185 76.1808C185 70.0846 184.97 64.0506 185.389 58.0269C185.519 56.1676 185.864 51.5713 187 50.1924" stroke="#4986CB" stroke-width="1.5" stroke-linecap="round" stroke-linejoin="round"/>
<path d="M189 59.474V57.6177" stroke="#4986CB" stroke-width="1.5" stroke-linecap="round" stroke-linejoin="round"/>
<path d="M194 58.5458V56.6895" stroke="#4986CB" stroke-width="1.5" stroke-linecap="round" stroke-linejoin="round"/>
<path d="M192 64.0177C193.386 64.3778 194.61 63.7238 195 62.2584" stroke="#4986CB" stroke-width="1.5" stroke-linecap="round" stroke-linejoin="round"/>
<path d="M179 98.3603C179 98.3603 173.604 88.2531 170.906 84.5762C168.209 80.8993 162.121 83.6526 157.955 83.8949C154.928 84.0705 147.621 84.3339 147.621 84.3339C140.64 84.6359 140.92 93.6263 140.651 98.4867C140.212 106.42 141.734 113.275 137 120.085C141.412 124.032 152.059 122.167 157.432 122.027C158.254 119.568 158.159 116.731 158.624 114.209C159.124 111.512 159.094 108.678 159.033 105.949C158.84 97.2189 159.37 90.2338 166.899 84.4779" stroke="#4986CB" stroke-width="1.5" stroke-linecap="round" stroke-linejoin="round"/>
<path d="M186 118.264C182.173 119.048 171.443 120.303 167.774 120.716C167.389 120.76 166.999 120.715 166.637 120.587C166.275 120.459 165.951 120.251 165.695 119.98L162 116.092" stroke="#4986CB" stroke-width="1.5" stroke-linecap="round" stroke-linejoin="round"/>
<path d="M169 83.6061C162.124 84.6841 162.011 98.3935 162.089 103.349C162.151 108.778 162.477 112.512 160.718 117.762C159.808 117.756 158.899 117.818 158 117.948" stroke="#4986CB" stroke-width="1.5" stroke-linecap="round" stroke-linejoin="round"/>
<path d="M151 84.5342C151 81.8963 151 79.1254 153.009 77.5966C154.818 76.2286 157.303 76.2916 159.535 76.1972C165.233 75.9313 166 78.9295 166 83.3482" stroke="#4986CB" stroke-width="1.5" stroke-linecap="round" stroke-linejoin="round"/>
<path d="M155.946 75.2526C154.479 70.6556 152 64.6696 152 64.6696L154.376 64.1147C156.411 67.4037 159 75.0139 159 75.0139" stroke="#4986CB" stroke-width="1.5" stroke-linecap="round" stroke-linejoin="round"/>
<path d="M158 80.8216C159.96 80.233 163.139 79.066 165 80.8216" stroke="#4986CB" stroke-width="1.5" stroke-linecap="round" stroke-linejoin="round"/>
<path d="M171.202 212.62C171.202 214.78 170.606 218.243 171.461 220.045" stroke="#4986CB" stroke-width="1.5" stroke-linecap="round" stroke-linejoin="round"/>
<path d="M189 214.476V221.901" stroke="#4986CB" stroke-width="1.5" stroke-linecap="round" stroke-linejoin="round"/>
<path d="M208 213.548C208 215.913 208.12 220.973 208.12 220.973" stroke="#4986CB" stroke-width="1.5" stroke-linecap="round" stroke-linejoin="round"/>
<path d="M209.959 221.544C210.016 222.57 209.997 223.653 209.997 224.686H186.039C184.879 219.116 209.951 221.434 209.959 221.544Z" fill="#4986CB" stroke="#4986CB" stroke-width="1.5" stroke-linecap="round" stroke-linejoin="round"/>
<path d="M190.959 221.544C191.016 222.57 190.997 223.653 190.997 224.686H167.039C165.879 219.116 190.951 221.434 190.959 221.544Z" fill="#4986CB" stroke="#4986CB" stroke-width="1.5" stroke-linecap="round" stroke-linejoin="round"/>
<path d="M190 221.902C190 220.835 190.191 219.648 190.29 218.589C190.368 217.785 190.375 216.702 190.885 216.043C191.12 215.742 191.46 215.531 191.844 215.446C192.228 215.361 192.632 215.408 192.983 215.579C194.366 216.373 191.808 219.564 191.341 220.398C192.863 219.581 193.97 217.557 195.828 217.348C197.537 217.156 197.162 219.178 196.072 219.759C194.657 220.519 192.533 220.509 191.369 221.495" stroke="#4986CB" stroke-width="1.5" stroke-linecap="round" stroke-linejoin="round"/>
<path d="M173.268 220.973C173.893 219.482 178.618 216.445 176.422 214.86C173.746 212.928 171.83 218.854 171.501 220.164C170.781 217.725 169.229 215.169 166.038 215.532C165.659 220.026 168.188 219.472 171.716 220.5" stroke="#4986CB" stroke-width="1.5" stroke-linecap="round" stroke-linejoin="round"/>
<path d="M175 71.54V78.9653" stroke="#4986CB" stroke-width="1.5" stroke-linecap="round" stroke-linejoin="round"/>
<path d="M258 222.83C258 222.83 257.903 205.588 257.903 197.143C257.903 181.106 257.179 165.083 256.65 149.057C256.155 134.013 256.875 119.299 256.875 104.307C256.875 97.4476 256.5 88.2004 256.5 83.7226C256.5 79.2448 256.407 61.9167 255.829 51.2116C255.421 43.634 255.316 34.1057 255.316 27.1217C255.316 27.1217 248.815 26.8891 244.395 27.0384C236.349 27.3091 228.341 26.8405 220.337 27.2258C210.308 27.7118 199.969 28.2498 189.921 27.7847C183.117 27.4688 175 28.0138 175 28.0138V65.0616" stroke="#4986CB" stroke-width="1.5" stroke-linecap="round" stroke-linejoin="round"/>
<path d="M210 223.758H262" stroke="#4986CB" stroke-width="1.5" stroke-linecap="round" stroke-linejoin="round"/>
<path d="M215 20.4913L208 16.7787" stroke="#4986CB" stroke-width="1.5" stroke-linecap="round" stroke-linejoin="round"/>
<path d="M209 16.2909C209 16.2909 213.195 9.272 215.16 6.32523C216.687 4.03291 217.6 4.64581 219.19 5.36952C219.4 5.46648 219.797 5.68809 220.209 5.92355C220.396 6.03121 220.558 6.17265 220.686 6.33969C220.815 6.50673 220.906 6.69604 220.956 6.89667C221.006 7.0973 221.013 7.30527 220.977 7.50853C220.941 7.71179 220.863 7.90631 220.746 8.08082C219.503 9.95415 217.287 13.3199 216.481 14.7431C215.595 16.3013 214.524 18.0742 213.824 19.5632" stroke="#4986CB" stroke-width="1.5" stroke-linecap="round" stroke-linejoin="round"/>
<path d="M219 5.42718C219.377 5.01649 219.588 4.35939 220.013 3.78442L222 4.86864L220.808 6.56889" stroke="#4986CB" stroke-width="1.5" stroke-linecap="round" stroke-linejoin="round"/>
<path d="M221 3.78448L223 1" stroke="#4986CB" stroke-width="1.5" stroke-linecap="round" stroke-linejoin="round"/>
<path d="M208 20.4913C208.953 21.1832 209.956 21.8037 211 22.3476" stroke="#4986CB" stroke-width="1.5" stroke-linecap="round" stroke-linejoin="round"/>
<path d="M210 21.4195L212 18.635" stroke="#4986CB" stroke-width="1.5" stroke-linecap="round" stroke-linejoin="round"/>
<path d="M215.334 13.9784C215.483 13.9385 215.61 13.8444 215.688 13.7159L218.875 8.476C218.935 8.37859 218.975 8.27048 218.991 8.15805C219.008 8.04561 219.001 7.93115 218.97 7.82144C218.911 7.60016 218.763 7.41032 218.56 7.29302L217.498 6.68959C217.396 6.63125 217.284 6.59305 217.167 6.57724C217.051 6.56143 216.932 6.56833 216.818 6.59754C216.588 6.65478 216.391 6.79685 216.269 6.99301L213.083 12.2329C213.043 12.2975 213.017 12.369 213.006 12.4433C212.995 12.5176 212.999 12.5932 213.019 12.6659C213.061 12.809 213.159 12.931 213.291 13.0068L214.881 13.9068C214.948 13.9472 215.022 13.9744 215.1 13.9867C215.178 13.999 215.258 13.9962 215.334 13.9784Z" fill="#F9570F"/>
<path d="M109.4 89.1749C108.968 90.3735 108.884 91.6516 109.156 92.8876" stroke="#4986CB" stroke-width="1.5" stroke-linecap="round" stroke-linejoin="round"/>
<path d="M111.514 90.0067C108.294 92.4847 107.884 96.7149 111.95 98.4566C112.775 95.2246 115.277 92.9661 118.234 91.6669C120.053 90.8669 125.309 89.0438 126.178 91.8723C128.544 91.1643 128.651 84.8596 126.233 83.8649C123.369 82.6825 117.754 85.8048 116.545 88.1128" stroke="#4986CB" stroke-width="1.5" stroke-linecap="round" stroke-linejoin="round"/>
<path d="M113 82.453C115.578 81.0267 125.33 77.3685 124.991 82.6779" stroke="#4986CB" stroke-width="1.5" stroke-linecap="round" stroke-linejoin="round"/>
<path d="M119 80.2165C115.301 78.3028 108.285 79.1537 101.628 79.1537C94.9716 79.1537 90.4708 79.2163 84.9564 80.3033C81.6469 80.9528 77.0326 82.0156 74.7444 84.471C71.4198 88.0309 71 93.3795 71 97.9223C71 101.774 71.5219 106.928 71.9834 110.523L77.0175 110.286" stroke="#4986CB" stroke-width="1.5" stroke-linecap="round" stroke-linejoin="round"/>
<path d="M77.1156 94.7439C77.1156 101.367 76.8433 107.856 77.1345 114.462C77.3009 118.172 77.1723 123.685 77.248 127.167C80.7084 127.406 84.7852 126.904 88.2607 126.574C92.1712 126.198 95.9719 126.083 99.9277 125.995C102.953 125.925 105.858 125.956 108.8 125.686C110.362 125.542 112.582 125.384 114 125.525" stroke="#4986CB" stroke-width="1.5" stroke-linecap="round" stroke-linejoin="round"/>
<path d="M113 96.6002C113 103.098 115.156 127.348 115.29 133.135C115.423 138.86 115.895 146.996 115.974 152.704C116.036 154.628 115.988 156.555 115.83 158.473C115.649 160.275 115.711 159.638 114.667 161.197C113.329 163.2 112.757 164.784 113.298 167.14" stroke="#4986CB" stroke-width="1.5" stroke-linecap="round" stroke-linejoin="round"/>
<path d="M125.212 91.0312C125.212 91.0312 126.097 103.277 126.425 108.968C126.742 114.491 127.067 120.017 127.399 125.545C127.989 135.416 128 145.228 128 155.086C128 159.619 127.462 165.173 126.06 169.434C124.142 175.254 113.358 176.216 109.99 171.844C108.072 169.347 108.983 161.299 112.351 164.472" stroke="#4986CB" stroke-width="1.5" stroke-linecap="round" stroke-linejoin="round"/>
<path d="M114 174.565C115.412 174.37 117.109 172.52 116.994 170.853" stroke="#4986CB" stroke-width="1.5" stroke-linecap="round" stroke-linejoin="round"/>
<path d="M119 173.637C120.366 172.951 121.945 171.412 122 169.925" stroke="#4986CB" stroke-width="1.5" stroke-linecap="round" stroke-linejoin="round"/>
<path d="M117 130.014C117.112 129.669 117.276 129.354 117.484 129.086" stroke="#4986CB" stroke-width="1.5" stroke-linecap="round" stroke-linejoin="round"/>
<path d="M73 110.523C73 123.042 73.4464 135.691 74.5367 148.127C74.8448 151.669 76.0694 164.586 80 167.14" stroke="#4986CB" stroke-width="1.5" stroke-linecap="round" stroke-linejoin="round"/>
<path d="M75 130.014C75.1239 130.107 75.2166 130.252 75.2614 130.422C75.3061 130.592 75.2999 130.777 75.2439 130.942" stroke="#4986CB" stroke-width="1.5" stroke-linecap="round" stroke-linejoin="round"/>
<path d="M79.3893 127.229C79.3893 145.672 80.548 164.728 79.6172 183.15C79.3353 188.755 79.3893 194.436 79.1306 200.031C78.9684 203.564 79.0031 210.714 79.0031 210.714C81.3204 210.825 94 210.714 94 210.714" stroke="#4986CB" stroke-width="1.5" stroke-linecap="round" stroke-linejoin="round"/>
<path d="M93.3907 145.793C93.3907 162.009 94.197 177.373 93.4432 193.544C93.237 197.999 93.2107 202.523 93.147 206.961C93.147 208.081 92.6482 210.916 93.4882 211.82C94.3283 212.725 96.6833 212.337 98.0108 212.519C100.636 212.519 110.011 212.592 113.712 212.62C114.126 212.624 114.525 212.478 114.824 212.212C115.124 211.947 115.301 211.584 115.317 211.199C115.467 207.708 115.659 199.277 115.625 196.973C115.554 192.378 115.854 176.906 116 174.891" stroke="#4986CB" stroke-width="1.5" stroke-linecap="round" stroke-linejoin="round"/>
<path d="M96.1313 212.62C96.1313 214.715 96 220.045 96 220.045" stroke="#4986CB" stroke-width="1.5" stroke-linecap="round" stroke-linejoin="round"/>
<path d="M111 212.62V220.045" stroke="#4986CB" stroke-width="1.5" stroke-linecap="round" stroke-linejoin="round"/>
<path d="M81 211.692V220.973" stroke="#4986CB" stroke-width="1.5" stroke-linecap="round" stroke-linejoin="round"/>
<path d="M80.3067 221.276C84.9513 221.276 105.978 219.47 104.965 224.686H80.0431C79.9375 223.544 80.0263 222.396 80.3067 221.276Z" fill="#4986CB" stroke="#4986CB" stroke-width="1.5" stroke-linecap="round" stroke-linejoin="round"/>
<path d="M95.2943 221.276C99.7607 221.276 119.938 219.47 118.966 224.686H95.0412C94.9401 223.545 95.0253 222.397 95.2943 221.276Z" fill="#4986CB" stroke="#4986CB" stroke-width="1.5" stroke-linecap="round" stroke-linejoin="round"/>
<path d="M88.4584 70.3204C88.5916 70.6153 88.803 70.8728 89.0721 71.0679C89.3412 71.263 89.659 71.3893 89.9947 71.4344C95.1779 72.0725 99.4101 69.841 100.096 64.1548C100.354 62.008 99.9061 59.572 100.339 57.4569C100.823 55.0914 101.379 55.5815 103.926 54.9399C104.127 53.4734 103.214 51.7672 102.606 50.4804C104.843 50.7448 108.796 49.9799 110.213 48.182C112.141 45.732 110.31 40.6204 107.088 43.5675V43.5498C107.132 43.3175 107.115 43.0787 107.039 42.8538C106.964 42.6289 106.831 42.4248 106.654 42.259C106.476 42.0932 106.259 41.9707 106.02 41.902C105.781 41.8333 105.528 41.8206 105.283 41.8648C103.199 42.2173 99.8427 42.8589 98.325 43.37C95.4352 44.3395 91.6615 45.5204 89.3235 47.5756C85.8818 50.5968 87.2838 56.4451 87.2764 60.5908C87.2801 63.4286 87.0415 67.2887 88.4584 70.3204Z" stroke="#4986CB" stroke-width="1.5" stroke-linecap="round" stroke-linejoin="round"/>
<path d="M90 78.9653L90.1313 71.54" stroke="#4986CB" stroke-width="1.5" stroke-linecap="round" stroke-linejoin="round"/>
<path d="M108.503 78.9652V69.3043C108.503 67.8328 108.437 66.767 108.843 66.3098C109.166 65.9419 111 65.8044 111 65.8044C109.83 60.9911 109.44 55.7137 108 51.1205" stroke="#4986CB" stroke-width="1.5" stroke-linecap="round" stroke-linejoin="round"/>
<path d="M36.7763 69.6309C36.9458 72.113 38.4979 74.8548 35.032 76.3918C31.7883 77.8284 28.5371 77.8111 25.0146 77.9773C22.1347 78.1211 19.2464 78.0052 16.3912 77.6311C14.2476 77.3888 11.7687 77.2849 12.0173 74.9725C12.4242 71.1333 13.2266 67.8308 13.9349 64.2236C15.2949 57.3 17.3255 49.6217 24.8978 46.655C33.51 43.2866 43.4934 47.8458 42.9811 57.3865C40.8317 57.6281 38.6701 57.7668 36.505 57.8019C36.505 61.8938 36.5917 66.9134 36.7763 69.6309Z" stroke="#4986CB" stroke-width="1.5" stroke-linecap="round" stroke-linejoin="round"/>
<path d="M42.3041 57.6177C42.5405 58.8097 43.7394 63.6778 43.9973 65.7819C44.0832 66.4729 42.1021 66.3347 42.1021 66.3347C41.9517 68.6427 42.0119 80.8216 42.0119 80.8216" stroke="#4986CB" stroke-width="1.5" stroke-linecap="round" stroke-linejoin="round"/>
<path d="M25 80.8216V78.0371" stroke="#4986CB" stroke-width="1.5" stroke-linecap="round" stroke-linejoin="round"/>
<path d="M43.7725 91.7822L43.7311 91.7651C42.0564 91.0608 42.0038 88.8383 42 87.4399C42.0284 84.9251 42.9306 82.4827 44.5778 80.4615C45.6164 79.1383 47.3851 77.6442 47.9308 80.082C47.3098 77.3296 52.5331 76.1808 54.8738 76.1808C57.2145 76.1808 56.8646 78.116 56.1797 78.7861C63.3598 76.3552 61.5008 88.9238 57.192 85.6483C58.8741 86.9886 57.6737 88.8007 55.9238 89.5529C54.4803 90.1945 52.8315 90.344 51.2769 89.9745C49.7224 89.6049 48.3655 88.7407 47.4528 87.5391C47.3588 88.6742 47.6222 89.6179 46.9034 90.6881C46.2336 91.666 45.0143 92.2814 43.7725 91.7822Z" stroke="#4986CB" stroke-width="1.5" stroke-linecap="round" stroke-linejoin="round"/>
<path d="M19 83.6374C15.8345 81.8001 9.95463 80.7573 6.419 83.1125C4.1056 84.6589 3.35375 88.0498 5.3317 90.2489C3.2805 88.6847 -0.571305 90.827 1.96186 92.8026C1.67654 92.8026 1.34881 92.8807 1.05964 92.8842C0.97867 94.5832 0.647084 96.6439 3.15712 96.5482C3.02217 99.8645 11.3157 98.0024 12.9273 97.2824" stroke="#4986CB" stroke-width="1.5" stroke-linecap="round" stroke-linejoin="round"/>
<path d="M15 121.661C15 112.33 10.9367 101.091 14.3935 91.9595" stroke="#4986CB" stroke-width="1.5" stroke-linecap="round" stroke-linejoin="round"/>
<path d="M17 85.4623C22.1203 81.2299 31.8985 80.8215 35.6809 80.8215C38.4758 80.8241 41.2631 81.0638 44 81.537" stroke="#4986CB" stroke-width="1.5" stroke-linecap="round" stroke-linejoin="round"/>
<path d="M46.1065 118.876C40.0046 118.897 30.7385 118.859 24.8216 119.964C21.1741 120.66 15.9029 120.611 12.8218 122.909C10.2881 124.8 8.99678 129.011 7.93574 131.855C5.98359 137.094 6.13085 143.005 5.5909 148.436C4.92256 155.212 5.53048 162.107 5.36056 168.914C5.1982 175.492 3.34045 182.022 2.87601 188.583C2.37759 195.613 2.17369 202.344 2 209.144C4.44302 210.928 10.341 208.689 13.1994 208.741C15.7783 208.786 18.4517 209.663 21.1288 209.381C23.9154 209.085 26.5246 207.91 29.213 207.319C34.4993 206.158 39.155 209.169 44.2714 208.272C46.7748 207.837 48.8025 206.401 51.4796 206.718C52.99 206.895 54.3606 207.347 55.6709 207.347C56.9811 207.347 57.3096 206.954 58.4688 206.412C59.1523 200.776 58.9824 195.001 58.9786 189.264C58.9786 185.6 58.163 167.232 58.163 167.232" stroke="#4986CB" stroke-width="1.5" stroke-linecap="round" stroke-linejoin="round"/>
<path d="M20 120.732C15.5257 126.097 13.7794 137.216 14.022 143.936" stroke="#4986CB" stroke-width="1.5" stroke-linecap="round" stroke-linejoin="round"/>
<path d="M25 119.804C19.2647 125.417 18.7567 137.784 18.4029 145.037C18.1809 149.661 18.6362 154.244 18.4293 158.82C18.2411 162.979 17.4546 168.729 18.6438 172.709" stroke="#4986CB" stroke-width="1.5" stroke-linecap="round" stroke-linejoin="round"/>
<path d="M18.2326 181.063C18.2588 182.303 18.181 183.544 18 184.775" stroke="#4986CB" stroke-width="1.5" stroke-linecap="round" stroke-linejoin="round"/>
<path d="M30 118.876C32.0216 120.359 32.7602 125.11 33 127.229" stroke="#4986CB" stroke-width="1.5" stroke-linecap="round" stroke-linejoin="round"/>
<path d="M36 118.876C39.9709 124.521 40.0718 130.048 40.544 136.571C40.8668 141.081 40.7337 146.865 41 151.361" stroke="#4986CB" stroke-width="1.5" stroke-linecap="round" stroke-linejoin="round"/>
<path d="M42 118.876C43.0618 120.652 43.3135 122.624 44 124.445" stroke="#4986CB" stroke-width="1.5" stroke-linecap="round" stroke-linejoin="round"/>
<path d="M49.469 198.698C49.4465 192.488 49 186.348 49 180.134" stroke="#4986CB" stroke-width="1.5" stroke-linecap="round" stroke-linejoin="round"/>
<path d="M27 202.41C27 196.16 29.1178 190.076 28.9948 183.847" stroke="#4986CB" stroke-width="1.5" stroke-linecap="round" stroke-linejoin="round"/>
<path d="M34.2379 200.554C34.2042 199.315 33.9791 198.09 34.0016 196.841" stroke="#4986CB" stroke-width="1.5" stroke-linecap="round" stroke-linejoin="round"/>
<path d="M44 91.9595C44 91.9595 46.2768 114.992 46.8547 126.558C47.2595 134.592 47.8927 138.705 48 146.721" stroke="#4986CB" stroke-width="1.5" stroke-linecap="round" stroke-linejoin="round"/>
<path d="M56 89.1749C56 89.1749 57.579 102.123 57.9775 108.74C58.3534 114.786 59.0338 120.845 59.297 126.877C59.5188 132.056 60 147.649 60 147.649" stroke="#4986CB" stroke-width="1.5" stroke-linecap="round" stroke-linejoin="round"/>
<path d="M60.9962 155.074C60.9962 161.256 61.3748 166.593 54.6005 168.841C49.9429 170.39 42.6574 171.123 42.0326 165.029C41.6804 161.591 44.2705 160.303 45.6943 162.987" stroke="#4986CB" stroke-width="1.5" stroke-linecap="round" stroke-linejoin="round"/>
<path d="M46 166.212C46 163.698 46 159.748 48.963 158.979C49.0111 157.999 48.9963 156.993 49 156.002" stroke="#4986CB" stroke-width="1.5" stroke-linecap="round" stroke-linejoin="round"/>
<path d="M51 167.14C50.7923 168.131 50.3387 168.989 50 169.925" stroke="#4986CB" stroke-width="1.5" stroke-linecap="round" stroke-linejoin="round"/>
<path d="M55 166.212C54.9088 166.855 54.265 168.453 54 168.997" stroke="#4986CB" stroke-width="1.5" stroke-linecap="round" stroke-linejoin="round"/>
<path d="M5 98.4565C5 98.4565 5.53521 119.217 5.82629 123.592C6.11737 127.968 7 136.511 7 136.511" stroke="#4986CB" stroke-width="1.5" stroke-linecap="round" stroke-linejoin="round"/>
<path d="M50 120.732C49.6441 121.029 49.3103 121.339 49 121.66" stroke="#4986CB" stroke-width="1.5" stroke-linecap="round" stroke-linejoin="round"/>
<path d="M8.46898 121.661C8.2529 121.939 8.09376 122.254 8 122.589" stroke="#4986CB" stroke-width="1.5" stroke-linecap="round" stroke-linejoin="round"/>
<path d="M14.0976 208.907C14.0976 211.628 14.2364 214.035 14.0976 216.756C13.9963 218.746 14 221.902 14 221.902" stroke="#4986CB" stroke-width="1.5" stroke-linecap="round" stroke-linejoin="round"/>
<path d="M27.0975 207.979C27.0975 212.997 27 216.881 27 221.902" stroke="#4986CB" stroke-width="1.5" stroke-linecap="round" stroke-linejoin="round"/>
<path d="M44.9394 207.979C45.3597 212.541 43.4289 217.498 44.172 221.902" stroke="#4986CB" stroke-width="1.5" stroke-linecap="round" stroke-linejoin="round"/>
<path d="M13.5022 224.686H32.9882C33.023 224.145 32.9806 223.602 32.8618 223.068C27.0191 221.74 19.3258 221.718 13.2991 222.156C13.1957 223.202 12.575 223.892 13.5022 224.686Z" fill="#4986CB" stroke="#4986CB" stroke-width="1.5" stroke-linecap="round" stroke-linejoin="round"/>
<path d="M27.5506 224.686H48.9982C49.0198 224.061 48.8471 223.445 48.506 222.93C48.1649 222.415 47.6736 222.029 47.1052 221.829C40.5176 220.604 33.3432 220.905 27.3272 221.434C27.2174 222.758 26.5322 223.655 27.5506 224.686Z" fill="#4986CB" stroke="#4986CB" stroke-width="1.5" stroke-linecap="round" stroke-linejoin="round"/>
<path d="M10 174.565C9.5503 181.535 9.44024 188.512 8.99683 195.454C8.76726 199.062 7.94334 204.543 8.00309 207.979" stroke="#4986CB" stroke-width="1.5" stroke-linecap="round" stroke-linejoin="round"/>
<path d="M46.9045 154.072C45.7703 152.749 45.6682 147.368 46.7948 147.66C47.9215 147.953 52.6019 148.221 53.2824 148.266C54.7477 148.383 56.2228 148.347 57.6793 148.158C59.3314 147.928 60.7416 147.528 62.0005 147.974C63.2595 148.419 63.0553 151.263 62.836 152.575C62.2954 155.85 59.5582 155.892 55.3844 155.993C51.2106 156.094 48.0273 155.394 46.9045 154.072Z" stroke="#4986CB" stroke-width="1.5" stroke-linecap="round" stroke-linejoin="round"/>
<path d="M48.033 151.818C47.9467 151.56 48.033 151.41 48.2542 151.362" stroke="#4986CB" stroke-width="1.5" stroke-linecap="round" stroke-linejoin="round"/>
<path d="M51.9896 152.782L52.2109 152.33" stroke="#4986CB" stroke-width="1.5" stroke-linecap="round" stroke-linejoin="round"/>
<path d="M51.6782 150.097L52.1432 149.86" stroke="#4986CB" stroke-width="1.5" stroke-linecap="round" stroke-linejoin="round"/>
<path d="M55.9215 150.667C56.109 150.482 56.4278 150.166 56.3828 150.43" stroke="#4986CB" stroke-width="1.5" stroke-linecap="round" stroke-linejoin="round"/>
<path d="M56.4655 153.363C56.7393 153.067 57.0205 152.834 57.1593 152.896" stroke="#4986CB" stroke-width="1.5" stroke-linecap="round" stroke-linejoin="round"/>
<path d="M59.2006 150.364C59.3833 150.152 59.5347 149.918 59.6508 149.669" stroke="#4986CB" stroke-width="1.5" stroke-linecap="round" stroke-linejoin="round"/>
<path d="M60.8891 151.893H61.5904" stroke="#4986CB" stroke-width="1.5" stroke-linecap="round" stroke-linejoin="round"/>
<path d="M90.8664 129.389C90.7276 129.389 80.5563 130.025 79.3594 130.084C79.5545 134.66 78.9843 140.855 85.4149 142.96C85.4149 142.96 90.495 140.921 90.9377 136.553C91.1665 134.34 90.9527 131.634 90.8664 129.389Z" stroke="#4986CB" stroke-width="1.5" stroke-linecap="round" stroke-linejoin="round"/>
<path d="M80.3387 133.298C81.8057 133.235 84.2706 133.159 84.2706 133.159" stroke="#4986CB" stroke-width="1.5" stroke-linecap="round" stroke-linejoin="round"/>
<path d="M87.6061 133.013L90.3562 132.895" stroke="#4986CB" stroke-width="1.5" stroke-linecap="round" stroke-linejoin="round"/>
<path d="M110.016 129.261C109.877 129.261 99.6871 129.476 98.4865 129.473C98.464 134.052 97.5785 140.243 103.919 142.585C103.919 142.585 109.097 140.754 109.742 136.407C110.072 134.215 109.993 131.505 110.016 129.261Z" stroke="#4986CB" stroke-width="1.5" stroke-linecap="round" stroke-linejoin="round"/>
<path d="M99.4733 132.746C102.85 132.746 106.448 132.332 109.708 132.551" stroke="#4986CB" stroke-width="1.5" stroke-linecap="round" stroke-linejoin="round"/>
<path d="M91.9432 145.052C92.8849 145.274 94.213 145.476 95.0497 145.691" stroke="#4986CB" stroke-width="1.5" stroke-linecap="round" stroke-linejoin="round"/>
<path d="M233.017 138.03C233.017 142.157 226.072 143.429 224.601 139.538C223.667 137.061 224.526 133.823 227.547 133.333C230.848 132.794 233.017 135.053 233.017 138.03Z" fill="#FAB550" stroke="#FAB550" stroke-width="1.5" stroke-linecap="round" stroke-linejoin="round"/>
<path d="M228.995 135.355C229.409 135.418 229.786 135.611 230.065 135.901C230.344 136.191 230.506 136.561 230.526 136.949" stroke="#4986CB" stroke-width="1.5" stroke-linecap="round" stroke-linejoin="round"/>
<path d="M240.491 139.027V136.366" stroke="#4986CB" stroke-width="1.5" stroke-linecap="round" stroke-linejoin="round"/>
<path d="M39.4434 62.5336V61.9846" stroke="#4986CB" stroke-width="1.5" stroke-linecap="round" stroke-linejoin="round"/>
<path d="M106.227 60.1013V59.5524" stroke="#4986CB" stroke-width="1.5" stroke-linecap="round" stroke-linejoin="round"/>
<path d="M185.518 48.6848C188.077 52.6003 192.317 54.2437 196.519 55.3138C198.395 55.7897 202.818 56.1719 204.597 55.4632" stroke="#4986CB" stroke-width="1.5" stroke-linecap="round" stroke-linejoin="round"/>
<path d="M202.259 71.563C205.171 71.4553 208.018 71.2607 210.922 71.0488C212.742 70.9168 215.304 70.8925 217.116 70.7431C217.533 70.2497 217.252 69.1623 217.075 68.6342C216.7 67.571 215.706 66.5948 214.974 65.6706C213.871 64.2809 213.849 63.0961 213.706 61.3868C213.496 59.0173 212.111 56.9536 210.584 55.1956C209.575 54.0317 208.12 53.1805 207.335 51.8672C206.063 49.734 205.231 47.3159 203.779 45.9296C202.327 44.5434 198.436 42.8931 194.305 42.8375C190.174 42.7819 185.747 44.2272 183.657 46.0165C181.159 48.1601 180.926 51.7456 179.845 54.1533C179.313 55.3415 178.105 55.9738 177.332 57.0126C175.925 58.8992 176.814 61.0984 175.989 63.0753C175.482 64.2913 174.045 64.9514 173.205 65.9555C172.023 67.373 171.554 69.5375 171.449 71.2329C173.891 71.3372 176.326 71.6221 178.739 71.7506C180.832 71.8653 182.547 71.8861 184.637 71.8965" stroke="#4986CB" stroke-width="1.5" stroke-linecap="round" stroke-linejoin="round"/>
</svg>
