<svg width="213" height="338" viewBox="0 0 213 338" fill="none" xmlns="http://www.w3.org/2000/svg">
<path d="M141.278 238.569C141.278 259.907 141.584 280.743 141.584 302.17C141.584 307.035 140.961 312.6 139.85 315.61C138.998 318.117 135.865 322.114 132.796 323.586C128.594 325.585 123.515 325.842 119.066 326.74C116.885 327.177 111.583 328.248 111.266 331.257C110.978 334.01 114.716 335.105 116.685 335.416C122.293 336.302 128.229 336.05 133.866 336.05C142.324 336.05 150.795 336.146 159.229 335.751C167.094 335.386 175.464 335.476 182.571 334.89C189.677 334.303 192.945 330.228 188.155 327.141C185.509 325.441 179.673 325.441 176.657 325.034C173.301 324.586 169.98 324.436 166.612 323.718C159.817 322.306 156.384 317.549 156.296 310.195C156.002 286.134 156.602 262.019 156.602 237.917" stroke="#4986CB" stroke-width="2.375" stroke-linecap="round" stroke-linejoin="round"/>
<path d="M210.971 222.132C210.84 218.393 210.106 211.344 209.123 208.301C208.139 205.258 203.297 203.197 199.099 205.973C196.845 209.822 191.223 211.204 186.673 211.938C179.709 213.059 172.691 213.15 165.703 213.98C155.489 215.192 146.485 216.126 136.146 215.192C128.794 214.52 121.239 214.75 113.923 214.35C111.085 214.192 108.145 214.089 105.313 214.192C103.274 214.271 100.883 215.368 98.8615 215.047C98.2224 214.946 97.6123 214.706 97.0727 214.344C97.1399 214.66 97.1367 214.987 97.0634 215.302C96.9902 215.616 96.8487 215.91 96.6494 216.162C95.0931 217.932 90.3647 215.714 85.9166 213.283C87.8247 214.647 89.5896 216.071 90.8775 217.15C96.2439 221.623 90.8418 221.726 86.8289 223.211C91.599 223.151 92.881 224.139 93.674 228.976C94.2305 232.337 94.7135 235.728 95.1229 239.146H95.6834C95.6834 239.146 118.449 239.601 123.112 239.48C134.023 239.183 159.036 239.11 169.948 238.813C177.854 238.595 181.325 238.546 189.237 238.255C194.401 238.067 201.466 237.534 206.105 235.273C210.452 233.121 211.168 227.012 210.971 222.132Z" fill="#FAB550" stroke="#FAB550" stroke-width="2.375" stroke-linecap="round" stroke-linejoin="round"/>
<path d="M98.5835 41.5835L74.8335 66.9168" stroke="#4986CB" stroke-width="2.375" stroke-linecap="round" stroke-linejoin="round"/>
<path d="M43.1665 100.167L38.4165 104.917" stroke="#4986CB" stroke-width="2.375" stroke-linecap="round" stroke-linejoin="round"/>
<path d="M80.3974 73.5462C80.7579 69.4573 74.015 67.377 71.1489 66.626C62.6952 64.2913 53.6881 65.1387 45.8085 69.0102C31.98 76.002 19.7116 84.1739 6.73415 92.8525C6.73415 92.8525 5.79451 91.72 4.68942 92.322C3.58432 92.924 4.09846 93.9373 4.15756 94.4558C4.03936 94.4558 2.38467 93.2637 2.0301 95.1592C1.67552 97.0547 4.54168 103.134 6.01908 106.228C8.379 110.879 11.2217 115.265 14.4994 119.311C16.1541 121.344 18.2283 120.843 19.1266 120.104C20.0249 119.365 20.0603 117.797 19.5521 116.575C21.4077 118.876 22.2173 116.2 22.5069 115.503C23.0979 114.138 23.2574 112.85 24.9889 111.277C29.5866 107.104 34.6866 102.389 39.4025 98.5507C41.0442 99.6642 42.9921 100.227 44.9693 100.16C47.8177 99.9694 52.3504 98.8488 54.7379 96.8878C52.4449 98.7296 50.5302 99.3316 51.7831 100.464C53.4496 101.954 58.7446 100.536 62.9168 98.7594C67.0889 96.9831 69.4705 90.1642 63.9805 89.3357C68.0818 89.3357 71.5389 84.1977 67.5854 81.432L67.3312 81.5572L67.5558 81.4141C73.294 78.8392 81.8452 81.5095 82.6844 77.1285C83.0153 75.5609 82.0698 74.4045 80.3974 73.5462Z" fill="#ABDDDF" stroke="#ABDDDF" stroke-width="2.375" stroke-linecap="round" stroke-linejoin="round"/>
<path d="M101.75 13.0833C100.5 14.854 99.381 16.6248 98.3327 17.9647C94.2639 23.3183 90.5327 31.1097 87.8024 37.2838C86.1796 40.9493 91.504 41.5514 93.9085 42.9149C93.3075 45.6432 92.9018 48.4106 92.6944 51.1962C92.422 55.6821 92.1495 59.2001 92.3746 63.6742C92.5937 67.9005 93.8315 77.2502 94.9272 84.3333" stroke="#4986CB" stroke-width="2.375" stroke-linecap="round" stroke-linejoin="round"/>
<path d="M137.556 82.7501C136.682 79.4034 135.052 67.025 134.467 63.6176C138.289 64.0124 143.553 62.0384 144.382 57.8292C145.086 54.3368 142.525 51.6096 139.578 50.9476C137.023 50.3766 135.149 51.3059 133.417 52.6482C133.417 51.0812 133.417 49.502 133.53 47.9167" stroke="#4986CB" stroke-width="2.375" stroke-linecap="round" stroke-linejoin="round"/>
<path d="M127.083 71.766C123.737 66.8565 123.348 57.8131 124.145 52.6666C124.145 52.6666 110.462 54.5025 102.307 55.2606C98.6308 55.5982 94.8651 55.7877 91.1114 55.7877C91.1114 55.7877 90.6018 62.1068 90.6737 64.2329C90.9207 69.2118 91.7476 74.146 93.1382 78.9379C98.7508 79.9151 103.494 79.7493 109.376 78.6655C114.989 77.6291 120.056 76.0538 124.967 73.0571L127.083 71.766Z" fill="#F15D4A" stroke="#F15D4A" stroke-width="2.375" stroke-linecap="round" stroke-linejoin="round"/>
<path d="M109.667 62.1667C106.75 63.1904 100.167 66.5056 98.5835 68.5001" stroke="#4986CB" stroke-width="2.375" stroke-linecap="round" stroke-linejoin="round"/>
<path d="M106.5 68.5001C106.141 68.8039 103.703 71.2112 103.333 71.6668" stroke="#4986CB" stroke-width="2.375" stroke-linecap="round" stroke-linejoin="round"/>
<path d="M98.5835 40C100.439 40.1183 101.854 40.91 103.333 41.5833" stroke="#4986CB" stroke-width="2.375" stroke-linecap="round" stroke-linejoin="round"/>
<path d="M97.8564 25.7499C99.2905 26.33 100.536 27.5584 101.75 28.6436C100.136 29.1718 98.5502 29.7915 96.9999 30.4999" stroke="#4986CB" stroke-width="2.375" stroke-linecap="round" stroke-linejoin="round"/>
<path d="M116 28.9167C114.109 29.2379 112.808 29.9203 111.25 30.3551C112.481 31.3734 113.662 32.4792 114.786 33.6667" stroke="#4986CB" stroke-width="2.375" stroke-linecap="round" stroke-linejoin="round"/>
<path d="M101.75 12.5425C105.688 16.5525 115.186 14.1951 119.594 12.8091C118.095 13.6324 118.404 14.7045 119.707 15.5574C121.217 16.5703 124.31 15.1073 125.892 15.125C127.189 15.125 128.355 15.6581 129.633 15.7174C128.819 17.0205 127.195 18.5309 127.76 20.4559C128.875 20.5446 129.976 20.7674 131.037 21.1193C131.394 27.8303 130.032 34.263 131.311 41.0036C131.656 42.8398 131.953 46.5062 133.773 47.6139C136.021 48.9881 136.747 45.3571 137.282 43.2899C139.394 35.3587 141.142 28.162 142.683 20.1894C143.504 15.9128 142.195 12.4892 138.264 9.90669C133.898 7.04577 129.556 4.57579 124.584 3.17791C119.231 1.68526 114.086 1.33579 108.959 3.77023C106.259 5.00226 102.375 7.96979 101.75 12.5425Z" stroke="#4986CB" stroke-width="2.375" stroke-linecap="round" stroke-linejoin="round"/>
<path d="M103.333 112.833C104.065 107.257 106.061 101.668 107.302 96.1678C107.835 93.8172 110.025 86.6421 110.025 86.6421C110.955 89.0808 111.98 92.019 112.952 94.493C113.537 95.9033 114.825 100.857 116.201 101.703C119.672 103.831 130.362 94.8044 133.336 92.8241C135.982 91.0612 139.559 89.4745 141.719 87.0887C143.399 85.2376 143.317 84.8733 141.438 82.7695C139.805 80.9479 140.22 81.0536 137.492 81.3063C133.496 81.6978 129.541 82.4271 125.667 83.4865C121.142 84.6618 114.69 86.8537 110.001 86.6421" stroke="#4986CB" stroke-width="2.375" stroke-linecap="round" stroke-linejoin="round"/>
<path d="M103.333 109.667C102.149 104.685 100.164 99.9579 99.0684 94.9761C98.3872 91.8693 98.1384 88.72 97.1729 85.9166C95.5084 90.0974 96.1422 95.5161 93.9683 99.4603C89.6976 96.038 88.7261 91.6994 89.1882 86.1654C91.7175 86.0259 97.1729 85.9166 97.1729 85.9166" stroke="#4986CB" stroke-width="2.375" stroke-linecap="round" stroke-linejoin="round"/>
<path d="M141.333 87.5C150.133 88.2063 158.862 89.6192 167.438 91.7254C172.946 93.1736 177.258 94.2403 180.233 99.7411C185.06 108.681 186.74 120.499 188.775 130.439C190.97 141.238 192.396 152.144 195.229 162.776C196.004 165.708 199.997 174.32 194.602 175.011C196.891 175.011 200.133 178.325 197.104 179.88C197.879 181.108 198.642 183.17 197.376 183.778C196.11 184.386 194.223 184.034 192.052 183.182C189.473 182.169 184.954 180.011 182.369 178.736C180.718 177.926 169.254 172.717 168.929 175.16" stroke="#4986CB" stroke-width="2.375" stroke-linecap="round" stroke-linejoin="round"/>
<path d="M196.75 180.917C189.136 179.787 183.377 174.269 177.75 173" stroke="#4986CB" stroke-width="2.375" stroke-linecap="round" stroke-linejoin="round"/>
<path d="M195.167 174.583C191.518 174.333 189.732 172.258 187.25 171.417" stroke="#4986CB" stroke-width="2.375" stroke-linecap="round" stroke-linejoin="round"/>
<path d="M179.333 142.917C177.522 149.132 175.349 156.479 173.384 162.487C171.85 167.231 170.749 172.106 169.293 176.88C166.853 184.874 164.592 193.485 159.82 200.328C156.185 205.535 151.011 208.577 144.937 207.676C140.526 207.024 136.986 204.284 133.161 201.941C126.465 197.837 119.799 193.989 112.44 191.213C107.775 189.434 101.529 186.837 96.8578 185.23C93.6372 184.121 85.8461 182.389 78.0017 182.389C77.9188 176.814 81.1099 171.406 83.33 168.636C86.0829 165.191 90.4047 165.031 94.3772 164.859C100.925 164.58 107.337 164.859 113.855 165.138C119.148 165.363 124.867 167.889 130.083 167.51" stroke="#4986CB" stroke-width="2.375" stroke-linecap="round" stroke-linejoin="round"/>
<path d="M130.585 179.333C130.792 176.268 129.367 167.565 131.194 165.321C134.574 161.231 137.813 169.88 138.392 171.94C138.155 169.791 134.44 164.255 136.157 162.386C137.655 160.761 142.314 163.838 142.917 164.339" stroke="#4986CB" stroke-width="2.375" stroke-linecap="round" stroke-linejoin="round"/>
<path d="M136.583 161.917C143.319 146.633 146.771 131.651 152.417 116" stroke="#4986CB" stroke-width="2.375" stroke-linecap="round" stroke-linejoin="round"/>
<path d="M128.667 133.417C129.409 132.26 131.355 131.534 132.097 133.018C133.098 132.575 134.152 132.188 135.247 131.861C135.331 132.22 135.663 132.471 135.639 132.958C136.537 132.642 137.384 132.265 138.167 131.833" stroke="#4986CB" stroke-width="2.375" stroke-linecap="round" stroke-linejoin="round"/>
<path d="M85.9166 127.083C86.6662 134.989 87.8516 142.837 89.4663 150.584C90.3888 154.843 91.4354 159.378 92.25 163.5" stroke="#4986CB" stroke-width="2.375" stroke-linecap="round" stroke-linejoin="round"/>
<path d="M197.298 184.657C197.298 184.657 199.406 191.783 200.032 194.111C200.64 196.394 201.102 198.713 201.413 201.054C202.432 208.842 194.267 210.975 188.079 211.944C181.123 213.037 174.114 213.125 167.134 213.935C156.933 215.117 147.94 216.027 137.619 215.117C130.27 214.461 122.701 214.685 115.418 214.295C112.583 214.142 109.647 214.041 106.818 214.142C104.781 214.219 102.393 215.288 100.374 214.975C95.9851 214.284 94.8774 207.884 93.734 204.097C94.2402 206.744 100.285 213.705 98.1708 216.05C95.3717 219.152 82.3295 209.681 79.1135 209.066C82.9905 209.657 89.1662 214.384 92.3821 217.013C97.742 221.374 92.3464 221.475 88.3384 222.922C93.1027 222.863 94.3831 223.826 95.1752 228.542C98.1827 246.41 99.0581 265.118 99.0581 283.187C99.0581 286.023 99.2725 297.291 99.2725 297.291C99.2725 297.291 95.8422 297.764 93.871 298.012C89.3389 298.603 84.8784 299.135 80.3046 299.348C75.0162 299.596 69.7159 299.667 64.4216 299.667H55.5421C54.9942 293.817 53.7972 287.169 53.3089 281.119C51.695 261.295 50.1406 241.234 50.1406 221.274C50.1406 210.585 47.1034 192.681 54.2558 184.083" stroke="#4986CB" stroke-width="2.375" stroke-linecap="round" stroke-linejoin="round"/>
<path d="M195.167 209.574C197.887 209.253 201.494 209.288 203.083 211" stroke="#4986CB" stroke-width="2.375" stroke-linecap="round" stroke-linejoin="round"/>
<path d="M106.5 220.5C107.769 217.588 111.93 215.016 114.417 214.167" stroke="#4986CB" stroke-width="2.375" stroke-linecap="round" stroke-linejoin="round"/>
<path d="M100.167 336.083H54.2752C54.0707 330.687 55.0523 330.385 59.6392 329.613C65.7802 328.578 72.4589 328.514 78.7168 328.527C84.7469 328.527 95.4631 328.167 97.5958 328.167C99.7286 328.167 100.143 332.18 100.167 336.083Z" fill="#4986CB" stroke="#4986CB" stroke-width="2.375" stroke-linecap="round" stroke-linejoin="round"/>
<path d="M97.0001 328.167C97.0001 328.167 95.4167 301.891 95.4167 298.083" stroke="#4986CB" stroke-width="2.375" stroke-linecap="round" stroke-linejoin="round"/>
<path d="M65.3331 328.167C65.3331 328.167 64.9538 314.562 64.5613 309.112C64.4466 307.559 63.7498 299.667 63.7498 299.667" stroke="#4986CB" stroke-width="2.375" stroke-linecap="round" stroke-linejoin="round"/>
<path d="M54.2501 292.946C54.2501 292.946 44.9764 294.043 41.9886 294.526C37.134 295.307 32.6254 296.077 27.5741 296.5C27.5741 296.5 26.6557 287.453 26.1667 283.338C25.2482 275.645 22.7077 250.245 22.1471 245.456C21.33 238.514 21.1631 231.495 20.5249 224.518C19.2964 211.117 16.2489 191.997 31.2299 186.857C35.7803 185.294 47.0697 184.471 53.8923 184.083" stroke="#4986CB" stroke-width="2.375" stroke-linecap="round" stroke-linejoin="round"/>
<path d="M36.8334 296.5C38.4003 303.972 39.4377 311.425 40.3768 319.048C40.7098 321.746 41.5834 326.584 41.5834 326.584" stroke="#4986CB" stroke-width="2.375" stroke-linecap="round" stroke-linejoin="round"/>
<path d="M63.9896 325.007C55.4723 324.947 46.9572 325.286 38.4774 326.024C36.2516 326.233 22.3358 326.486 24.3688 331.333H65.3333L63.9896 325.007Z" fill="#4986CB" stroke="#4986CB" stroke-width="2.375" stroke-linecap="round" stroke-linejoin="round"/>
<path d="M39.9959 324.382C40.18 321.045 34.3292 305.766 31.1766 309.857C28.3001 313.606 35.6524 322.287 38.0802 325C36.2162 323.93 30.2043 313.245 27.6327 318.276C25.4523 322.533 35.7617 325.578 39.9959 324.382Z" stroke="#4986CB" stroke-width="2.375" stroke-linecap="round" stroke-linejoin="round"/>
<path d="M66.9164 328.167C70.0547 324.696 72.3851 312.213 76.7726 314.112C81.16 316.011 74.0382 325.309 69.2717 327.839C70.7569 326.137 81.4645 318.315 81.16 324.268C80.8928 329.334 70.7259 326.506 66.9164 328.167Z" stroke="#4986CB" stroke-width="2.375" stroke-linecap="round" stroke-linejoin="round"/>
<path d="M77.8845 180.83C71.2905 183.228 60.2792 177.707 54.2714 184.083C53.8999 178.293 58.4565 171.33 63.3092 169.196C70.2747 166.143 77.1822 166.418 84.3335 167.133" stroke="#4986CB" stroke-width="2.375" stroke-linecap="round" stroke-linejoin="round"/>
<path d="M41.5833 177.75C37.7488 178.564 32.7778 181.387 32.0833 185.667" stroke="#4986CB" stroke-width="2.375" stroke-linecap="round" stroke-linejoin="round"/>
<path d="M57.4167 172.933C52.7855 170.699 46.9058 169.2 41.3293 170.097C36.3125 170.873 31.5319 172.781 27.3404 175.678C21.0921 179.893 16.6392 186.13 21.4429 195.167" stroke="#4986CB" stroke-width="2.375" stroke-linecap="round" stroke-linejoin="round"/>
<path d="M27.3335 179.333C23.4408 183.305 20.9945 187.022 21.0001 193.583" stroke="#4986CB" stroke-width="2.375" stroke-linecap="round" stroke-linejoin="round"/>
<path d="M40 171.417C45.4411 169.09 52.545 165.556 58.1589 164.443C60.8646 163.902 62.0446 162.503 63.3319 160.748C64.935 158.547 66.4011 154.203 67.1043 151.151C69.5477 140.387 71.4787 129.242 73.7373 118.395C74.8637 112.963 76.1867 106.394 78.6183 101.426C80.579 97.4272 85.2513 94.6366 89.0833 93.8334" stroke="#4986CB" stroke-width="2.375" stroke-linecap="round" stroke-linejoin="round"/>
<path d="M66.9165 87.8876C63.7701 87.3115 60.535 87.3783 57.4165 88.0837" stroke="#4986CB" stroke-width="2.375" stroke-linecap="round" stroke-linejoin="round"/>
<path d="M19.4168 117.583C17.0624 114.643 14.9427 111.464 13.0835 108.083" stroke="#4986CB" stroke-width="2.375" stroke-linecap="round" stroke-linejoin="round"/>
<path d="M3.58337 93.8334C5.06444 96.1879 6.75004 98.5834 6.75004 98.5834" stroke="#4986CB" stroke-width="2.375" stroke-linecap="round" stroke-linejoin="round"/>
<path d="M123.917 52.6667C128.544 51.9316 135 49.5 135 49.5" stroke="#F15D4A" stroke-width="2.375" stroke-linecap="round" stroke-linejoin="round"/>
<path d="M136.583 66.9165C133.213 69.5448 130.525 70.9952 127.083 73.2498" stroke="#F15D4A" stroke-width="2.375" stroke-linecap="round" stroke-linejoin="round"/>
<path d="M68.5 81.1666C66.0626 79.2171 59 79.6171 59 79.6171" stroke="#4986CB" stroke-width="2.375" stroke-linecap="round" stroke-linejoin="round"/>
<path d="M59 70.5583C62.9717 70.1979 75.3963 69.2866 81.1667 71.6668" stroke="#4986CB" stroke-width="2.375" stroke-linecap="round" stroke-linejoin="round"/>
<path d="M36.8334 97.0001C39.2247 98.7487 41.7868 100.345 44.8385 100.151C47.5829 99.9827 51.9498 98.9955 54.25 97.2679" stroke="#4986CB" stroke-width="2.375" stroke-linecap="round" stroke-linejoin="round"/>
</svg>
