<svg width="184" height="246" viewBox="0 0 184 246" fill="none" xmlns="http://www.w3.org/2000/svg">
<path d="M39.8551 104.063C39.1651 101.94 40.0201 97.8303 40.3989 95.6366C41.0214 92.0103 44.9663 75.3228 46.0538 70.6278C46.9688 66.6828 47.5538 64.0803 50.3213 63.6341C54.0113 63.0303 61.9651 64.9841 67.0388 66.3266C69.4838 66.9753 74.8426 67.8266 75.5176 70.3916C76.2676 73.2078 73.9764 83.6103 72.9301 87.4541C71.4301 92.9066 70.3276 98.2578 68.8463 103.699C68.0963 106.478 67.8301 109.17 64.5451 109.549L39.8551 104.063Z" fill="#ECF2FA" stroke="#ECF2FA" stroke-width="1.5" stroke-linecap="round" stroke-linejoin="round"/>
<path d="M97.4289 43.1252L97.5714 44.2952C94.7514 43.5977 91.1101 43.9952 91.5226 47.7339C91.8714 50.9064 95.3364 50.8427 97.8376 50.0627C97.9314 53.3139 97.9389 56.5652 97.9164 59.8127" stroke="#E0EAF6" stroke-width="1.5" stroke-linecap="round" stroke-linejoin="round"/>
<path d="M116.362 38.5953C116.201 33.9228 116.018 28.9841 115.133 24.5891" stroke="#E0EAF6" stroke-width="1.5" stroke-linecap="round" stroke-linejoin="round"/>
<path d="M116.857 60.7501C116.857 60.7501 116.823 58.0201 116.771 54.6301" stroke="#E0EAF6" stroke-width="1.5" stroke-linecap="round" stroke-linejoin="round"/>
<path d="M104.648 35.5425V34.1475" stroke="#E0EAF6" stroke-width="1.5" stroke-linecap="round" stroke-linejoin="round"/>
<path d="M95.2874 41.7339C94.7436 40.5564 94.3124 36.7839 94.0574 34.8489C93.7386 32.4789 93.8024 29.9402 93.6824 27.5627C93.5624 25.1852 92.8986 19.0952 96.6824 20.8127C96.7461 16.9952 105.48 17.6214 107.726 17.4714C109.845 17.3289 112.342 16.9389 114.454 17.3289C115.68 17.5539 118.279 18.8289 116.062 20.0064C117.484 20.6364 117.562 22.3202 116.771 23.4602C115.29 25.6427 111.42 24.6227 109.792 23.6289C111.195 26.0102 108.9 27.8514 106.586 27.7539C104.674 27.6752 103.072 26.5802 101.527 25.6239C101.527 26.5877 101.527 27.6002 101.01 28.4552C100.597 29.1189 99.7836 29.4077 99.5399 30.0302C98.8424 31.8377 99.3824 35.1152 99.1874 37.0952C99.0261 38.7302 99.0786 39.6977 98.1224 41.0739C97.4999 41.9327 95.8349 42.9152 95.2874 41.7339Z" stroke="#E0EAF6" stroke-width="1.5" stroke-linecap="round" stroke-linejoin="round"/>
<path d="M117.401 60.6977C116.138 60.7952 108.634 64.414 108.634 64.414C108.634 64.414 98.3552 61.4552 97.5639 59.809C97.8864 61.9577 99.9564 64.789 101.111 66.694C102.144 68.4945 103.311 70.2144 104.603 71.839C105.135 70.249 106.5 68.5165 107.333 67.0765C107.959 65.989 108.641 64.519 108.641 64.519C108.641 64.519 113.494 69.6602 114.345 70.2415C115.234 68.3417 116.025 66.398 116.715 64.4177C117.148 63.224 117.379 61.9671 117.401 60.6977V60.6977Z" stroke="#E0EAF6" stroke-width="1.5" stroke-linecap="round" stroke-linejoin="round"/>
<path d="M98.2726 72.7499C100.463 76.3274 106.931 76.6387 110.404 76.2787C113.963 75.9037 115.999 74.0774 118.279 71.6887" stroke="#E0EAF6" stroke-width="1.5" stroke-linecap="round" stroke-linejoin="round"/>
<path d="M109.076 67.2488C109.414 70.035 109.485 76.29 109.485 76.29" stroke="#E0EAF6" stroke-width="1.5" stroke-linecap="round" stroke-linejoin="round"/>
<path d="M111.911 72.9188C111.9 72.7275 111.845 72.5415 111.75 72.375" stroke="#E0EAF6" stroke-width="1.5" stroke-linecap="round" stroke-linejoin="round"/>
<path d="M137.415 81.5962C138.135 83.2912 138.319 85.1175 138.735 86.8762C139.688 90.8625 139.789 95.1262 140.396 99.165C143.31 118.5 144.375 138.071 146.171 157.519C146.389 159.87 146.756 165.945 146.921 168.521C146.944 168.877 146.855 169.231 146.668 169.534C146.48 169.837 146.203 170.074 145.875 170.212C144.947 170.605 143.991 170.924 143.014 171.169C140.318 171.814 137.576 172.245 134.812 172.459C131.299 172.8 127.905 173.126 123.937 173.209C122.887 154.882 122.239 136.59 120.937 118.264C119.572 99.1575 118.312 80.0137 118.312 60.8662C121.59 60.8662 122.741 61.5225 124.384 65.5875C125.595 68.5875 126.405 72.2775 128.029 74.985C127.485 75.9112 123.097 77.955 122.576 78.5362C126.379 78.0862 127.976 79.4775 127.864 82.0125C127.717 85.3875 127.005 89.3812 126.668 92.73C126.21 97.23 125.497 102.034 124.751 106.504C123.705 112.785 121.466 126.431 121.466 126.431" stroke="#E0EAF6" stroke-width="1.5" stroke-linecap="round" stroke-linejoin="round"/>
<path d="M122.715 62.4788C125.335 62.6247 127.924 63.1113 130.418 63.9263C132.769 64.6463 134.573 66.0301 135.694 68.8388C139.328 77.9176 143.246 83.0213 145.17 92.7563C145.324 93.5438 146.64 95.8313 144.833 98.5651C143.768 100.17 143.231 97.8976 143.205 97.0013C143.16 95.4488 143.756 93.5776 145.253 92.8126C147.128 91.8563 148.316 95.6101 148.961 97.0051C148.091 95.4226 146.389 93.0038 146.303 91.1401C146.115 87.0151 147.75 83.4376 148.571 79.5151C149.861 73.3463 151.32 68.1001 152.666 61.9651C152.666 61.9651 160.508 65.1713 161.858 65.8538C164.205 67.0351 172.358 71.3026 173.108 71.8538C168.293 86.4376 163.71 100.691 156.866 114.476C155.561 117.101 151.178 121.575 148.039 122.55C147.057 122.791 146.049 122.907 145.039 122.895C144.368 122.861 143.164 122.666 143.618 122.348" stroke="#E0EAF6" stroke-width="1.5" stroke-linecap="round" stroke-linejoin="round"/>
<path d="M127.766 87.1688C129.037 87.0638 135.094 87.4126 135.094 87.4126C135.094 87.4126 136.061 94.3763 136.174 96.2176C136.282 97.9538 136.74 99.7763 136.68 101.49C133.17 101.228 129.379 101.306 125.929 101.314" stroke="#E0EAF6" stroke-width="1.5" stroke-linecap="round" stroke-linejoin="round"/>
<path d="M128.029 82.9203C129.836 82.7815 131.666 83.1078 133.519 83.0965" stroke="#E0EAF6" stroke-width="1.5" stroke-linecap="round" stroke-linejoin="round"/>
<path d="M130.29 86.8164C130.29 85.8414 130.091 82.8039 129.915 82.3164" stroke="#E0EAF6" stroke-width="1.5" stroke-linecap="round" stroke-linejoin="round"/>
<path d="M127.894 100.894C128.269 99.3037 129.019 97.3274 130.59 97.3237C132.75 97.3237 134.258 100.841 134.288 101.13" stroke="#E0EAF6" stroke-width="1.5" stroke-linecap="round" stroke-linejoin="round"/>
<path d="M130.017 96.8665C127.894 96.0752 127.504 93.3077 129.93 92.5202C132.499 91.684 133.305 96.5027 130.549 96.6452" stroke="#E0EAF6" stroke-width="1.5" stroke-linecap="round" stroke-linejoin="round"/>
<path d="M130.5 127.646C134.779 128.55 139.125 131.021 142.721 133.493" stroke="#E0EAF6" stroke-width="1.5" stroke-linecap="round" stroke-linejoin="round"/>
<path d="M132.278 131.389C134.78 132.521 137.207 133.815 139.541 135.263" stroke="#E0EAF6" stroke-width="1.5" stroke-linecap="round" stroke-linejoin="round"/>
<path d="M94.3913 127.5C94.3913 127.5 89.5163 130.358 87.3563 131.738C85.8563 132.705 84.0863 133.613 82.7513 134.816" stroke="#E0EAF6" stroke-width="1.5" stroke-linecap="round" stroke-linejoin="round"/>
<path d="M93.8437 132.075C93.8437 132.075 89.2912 134.254 87.4688 135.619" stroke="#E0EAF6" stroke-width="1.5" stroke-linecap="round" stroke-linejoin="round"/>
<path d="M84.9712 82.2902C84.8774 84.334 84.5587 86.4527 84.2849 88.489C82.9124 98.7902 81.6599 108.926 80.7112 119.288C79.9162 127.913 79.7399 136.635 79.1137 145.305C78.7087 150.863 78.2849 156.443 78.5699 162.011C78.7274 165.011 78.3562 168.488 78.9637 171.386C80.8724 172.886 84.1424 173.636 86.6062 173.876C91.9422 174.429 97.3111 174.595 102.671 174.375C102.51 172.065 102.851 169.17 103.046 166.804C103.481 161.61 103.387 156.439 103.601 151.2C103.781 146.7 102.96 142.35 102.881 137.858C102.791 132.75 102.442 127.5 102 122.359C101.49 116.618 101.047 110.873 100.957 105.109C100.901 101.58 99.9637 89.2352 99.7012 86.5015C99.2399 81.7315 97.3387 64.3765 96.8474 60.6827C96.8474 60.6827 95.5949 60.724 94.4136 60.7802C93.9495 60.804 93.5023 60.9623 93.1267 61.236C92.7512 61.5098 92.4634 61.8869 92.2987 62.3215C91.2037 65.1977 89.5837 67.6652 89.2987 70.8077C89.0737 73.2077 92.3812 75.5965 93.8774 77.4677C92.3774 76.2415 89.7524 74.5952 89.2686 77.7377C88.7849 80.8802 91.6837 88.6877 92.8612 92.284C95.3699 99.9527 101.539 122.284 102.015 124.301" stroke="#E0EAF6" stroke-width="1.5" stroke-linecap="round" stroke-linejoin="round"/>
<path d="M92.194 62.3325C86.944 63.42 82.2978 66.6338 79.9765 69.7913" stroke="#E0EAF6" stroke-width="1.5" stroke-linecap="round" stroke-linejoin="round"/>
<path d="M80.4975 121.804C79.6913 123.338 76.5038 124.388 74.895 124.29C72.9338 124.17 70.14 122.79 69.2513 120.353" stroke="#E0EAF6" stroke-width="1.5" stroke-linecap="round" stroke-linejoin="round"/>
<path d="M154.046 61.9165C154.046 61.9165 154.991 57.3227 155.783 55.2302C158.831 55.4027 163.391 57.1727 166.114 58.4815C168.293 59.5277 171.364 61.2452 173.46 62.3327C172.856 64.1552 170.918 70.6052 170.918 70.6052" stroke="#E0EAF6" stroke-width="1.5" stroke-linecap="round" stroke-linejoin="round"/>
<path d="M157.279 55.2038C158.031 51.0693 158.499 46.8883 158.681 42.69C158.82 37.62 157.853 32.415 157.586 27.345C157.485 25.425 157.121 23.0438 158.963 22.0575C160.804 21.0713 162.394 21.855 163.324 23.5575C164.213 25.1775 166.961 32.655 166.961 32.655" stroke="#E0EAF6" stroke-width="1.5" stroke-linecap="round" stroke-linejoin="round"/>
<path d="M168.191 46.6315C166.755 46.6315 164.029 44.1865 166.545 42.1952C163.5 41.7002 163.751 37.4552 166.17 37.4402C165.27 36.8552 165.236 34.8752 166.17 33.6565C168.09 31.1515 177.525 28.9427 179.539 31.864C179.936 32.4902 180.45 33.8477 180.158 34.6427C182.265 35.4752 182.265 37.2002 181.38 38.689C183.754 39.9752 182.306 43.2302 180.416 43.939C181.38 44.8202 180.203 47.314 178.298 48.214C174.799 49.8752 168.623 50.1227 168.191 46.6315Z" stroke="#E0EAF6" stroke-width="1.5" stroke-linecap="round" stroke-linejoin="round"/>
<path d="M175.391 49.1252C175.391 49.1252 173.381 57.8252 172.118 61.1889" stroke="#E0EAF6" stroke-width="1.5" stroke-linecap="round" stroke-linejoin="round"/>
<path d="M166.166 37.4403C167.666 37.5603 172.511 36.9491 173.981 36.6116C175.684 36.2366 178.856 35.6741 180.154 34.6428" stroke="#E0EAF6" stroke-width="1.5" stroke-linecap="round" stroke-linejoin="round"/>
<path d="M166.545 42.195C169.635 42.4275 173.194 41.6288 176.168 40.86C177.976 40.3228 179.722 39.595 181.376 38.6888" stroke="#E0EAF6" stroke-width="1.5" stroke-linecap="round" stroke-linejoin="round"/>
<path d="M164.692 52.3726C164.977 52.5563 165.292 52.7476 165.577 52.9013" stroke="#E0EAF6" stroke-width="1.5" stroke-linecap="round" stroke-linejoin="round"/>
<path d="M168.922 77.7001L169.807 77.8764" stroke="#E0EAF6" stroke-width="1.5" stroke-linecap="round" stroke-linejoin="round"/>
<path d="M168.064 81.5063L168.758 81.645" stroke="#E0EAF6" stroke-width="1.5" stroke-linecap="round" stroke-linejoin="round"/>
<path d="M166.796 85.1403L167.505 85.3165" stroke="#E0EAF6" stroke-width="1.5" stroke-linecap="round" stroke-linejoin="round"/>
<path d="M102 114.709C103.703 115.403 104.25 115.084 106.26 115.118C108.323 115.159 110.614 114.555 112.616 114.724C113.888 114.833 115.031 115.384 116.426 115.433C118.024 115.489 118.991 114.608 120.409 114.349" stroke="#E0EAF6" stroke-width="1.5" stroke-linecap="round" stroke-linejoin="round"/>
<path d="M112.973 131.014C113.175 134.306 113.205 138.165 113.348 141.443C113.573 146.014 113.487 150.66 113.292 155.239C112.887 164.846 113.292 174.641 113.292 184.298C113.292 191.1 112.995 197.903 112.864 204.705C112.744 211.219 110.614 234.589 110.614 234.589C108.267 234.878 98.7454 235.17 96.1354 235.17C93.0042 235.17 87.6379 234.795 84.8854 234.795C84.8854 234.795 85.4854 221.359 85.4779 216.934C85.4779 208.241 86.1942 202.418 86.1942 193.736V179.141C86.1942 177.518 86.3704 174.446 86.3704 174.446" stroke="#E0EAF6" stroke-width="1.5" stroke-linecap="round" stroke-linejoin="round"/>
<path d="M141.135 171.75C141.96 174.334 141.709 178.088 141.308 180.75C140.764 184.388 137.933 186.308 135.308 188.738C129.7 193.891 123.715 198.616 117.401 202.875C116.561 203.453 112.849 206.201 112.849 206.201" stroke="#E0EAF6" stroke-width="1.5" stroke-linecap="round" stroke-linejoin="round"/>
<path d="M136.946 181.099C136.155 182.123 135.787 183.349 135.176 184.474" stroke="#E0EAF6" stroke-width="1.5" stroke-linecap="round" stroke-linejoin="round"/>
<path d="M85.8748 196.373L76.5373 204.075C76.5373 204.075 78.4123 210.135 78.9185 212.28C80.1335 217.208 82.2373 220.759 83.3773 225.713L85.2973 224.689" stroke="#E0EAF6" stroke-width="1.5" stroke-linecap="round" stroke-linejoin="round"/>
<path d="M77.0173 205.759C74.5498 207.923 71.0173 209.663 68.2573 211.59C67.3573 212.217 64.796 214.062 64.796 214.062" stroke="#E0EAF6" stroke-width="1.5" stroke-linecap="round" stroke-linejoin="round"/>
<path d="M82.3166 224.336C81.0416 225.086 69.2704 232.286 69.2704 232.286" stroke="#E0EAF6" stroke-width="1.5" stroke-linecap="round" stroke-linejoin="round"/>
<path d="M63.5548 213.375L59.5236 214.95C59.5236 214.95 63.5998 234.45 64.3048 236.876C65.0361 239.4 65.2986 243.679 68.0548 244.489C68.7673 244.699 76.0836 244.47 76.0986 243.99C76.1511 242.648 76.8486 241.159 75.5061 240.469C74.2686 239.831 72.1648 240.469 70.8336 240.251C70.8336 240.251 68.8386 231.037 67.4586 226.826C66.0786 222.615 65.4748 218.014 64.0836 213.761C64.2748 213.645 64.4323 213.626 63.5548 213.375Z" fill="#E0EAF6" stroke="#E0EAF6" stroke-width="1.5" stroke-linecap="round" stroke-linejoin="round"/>
<path d="M69.9303 233.411C71.7153 232.879 74.749 231.236 76.4928 231.964C77.974 232.583 76.744 233.888 75.6453 234.589C74.1978 235.538 72.1128 235.714 70.4365 235.714C71.9815 235.511 75.8178 235.046 76.3278 237.293C77.0778 240.608 71.299 236.468 70.4365 235.714" stroke="#E0EAF6" stroke-width="1.5" stroke-linecap="round" stroke-linejoin="round"/>
<path d="M116.025 244.853C116.055 244.133 116.029 243.412 115.946 242.696C114.896 240.904 112.091 241.89 110.449 241.995C105.882 242.254 101.305 242.254 96.7386 241.995C92.9886 241.815 89.5086 241.324 85.7211 241.568C85.5336 245.554 86.7636 244.856 89.7261 244.853H116.025Z" fill="#E0EAF6" stroke="#E0EAF6" stroke-width="1.5" stroke-linecap="round" stroke-linejoin="round"/>
<path d="M86.4037 240.612C86.2199 240.105 86.5349 235.812 86.6024 235.268" stroke="#E0EAF6" stroke-width="1.5" stroke-linecap="round" stroke-linejoin="round"/>
<path d="M107.306 241.32C107.306 240.611 107.681 236.152 107.681 235.444" stroke="#E0EAF6" stroke-width="1.5" stroke-linecap="round" stroke-linejoin="round"/>
<path d="M108.375 241.586C109.845 239.145 111.071 233.854 114.431 233.576C115.556 235.65 113.655 238.395 111.735 239.269C112.703 237.866 115.755 236.475 117.36 236.842C118.17 240.067 110.79 241.912 108.375 241.586Z" stroke="#E0EAF6" stroke-width="1.5" stroke-linecap="round" stroke-linejoin="round"/>
<path d="M43.2562 65.1902C41.6062 65.7227 38.4674 67.3689 36.6449 69.3414C34.0537 72.1389 32.4411 75.6489 31.2486 79.2114C29.0174 85.8677 29.0736 91.8002 31.3536 98.4452C31.7286 99.5439 33.2024 103.241 34.7286 102.424" stroke="#E0EAF6" stroke-width="1.5" stroke-linecap="round" stroke-linejoin="round"/>
<path d="M32.2985 88.905C32.4898 90.9037 33.4235 97.38 35.1635 98.1375" stroke="#E0EAF6" stroke-width="1.5" stroke-linecap="round" stroke-linejoin="round"/>
<path d="M34.1886 82.0464C34.3198 84.2364 34.4248 91.6952 36.4386 92.7377" stroke="#E0EAF6" stroke-width="1.5" stroke-linecap="round" stroke-linejoin="round"/>
<path d="M40.6423 76.2338C39.3598 77.4226 39.4685 79.1701 39.9448 80.8576" stroke="#E0EAF6" stroke-width="1.5" stroke-linecap="round" stroke-linejoin="round"/>
<path d="M14.0173 198.54L43.7473 64.8377C44.1083 63.2093 45.0511 61.7687 46.3988 60.7862C47.7466 59.8036 49.4066 59.3468 51.0673 59.5014C55.2458 59.9253 59.399 60.5687 63.5098 61.4289C67.5453 62.3798 71.5272 63.5452 75.4386 64.9202C77.0079 65.4846 78.3177 66.6017 79.1226 68.0624C79.9274 69.523 80.1722 71.227 79.8111 72.8552L50.0098 206.884" stroke="#E0EAF6" stroke-width="1.5" stroke-linecap="round" stroke-linejoin="round"/>
<path d="M55.0952 59.6552C55.9427 57.499 56.6627 54.8552 56.6627 54.8552L72.4502 58.4402C72.4502 58.4402 72.304 61.4702 71.2765 63.4202" stroke="#E0EAF6" stroke-width="1.5" stroke-linecap="round" stroke-linejoin="round"/>
<path d="M59.0361 54.4801C59.6023 51.9489 60.9336 46.7476 60.9336 46.7476C64.4361 47.4151 68.3736 48.0714 71.8611 49.0464C71.3398 52.1551 70.6423 54.4989 69.9448 57.5101" stroke="#E0EAF6" stroke-width="1.5" stroke-linecap="round" stroke-linejoin="round"/>
<path d="M66.6224 47.2576L74.1599 13.3651" stroke="#E0EAF6" stroke-width="1.5" stroke-linecap="round" stroke-linejoin="round"/>
<path d="M34.8638 211.283L29.2463 236.558" stroke="#E0EAF6" stroke-width="1.5" stroke-linecap="round" stroke-linejoin="round"/>
<path d="M26.0477 201.214L46.1739 110.31L56.7902 112.669L36.5627 203.644" stroke="#E0EAF6" stroke-width="1.5" stroke-linecap="round" stroke-linejoin="round"/>
<path d="M18.8176 233.869L24.3563 208.86" stroke="#E0EAF6" stroke-width="1.5" stroke-linecap="round" stroke-linejoin="round"/>
<path d="M5.99994 204.083C7.30119 205.031 9.04493 205.245 10.8224 205.654C18.3637 207.394 25.8749 209.269 33.4274 210.956C38.6062 212.115 43.6274 213.33 48.8249 214.331C52.9274 215.134 57.2587 215.738 57.5962 212.014C57.9262 208.358 51.3149 207.203 47.7487 206.329C40.3649 204.529 32.8574 202.71 25.4287 201.079C21.6512 200.239 17.8749 199.399 14.0999 198.559C12.1087 198.109 8.74869 197.198 6.74994 197.528C4.28619 197.933 3.64494 200.112 4.45119 202.062C4.76485 202.869 5.30208 203.57 5.99994 204.083Z" stroke="#E0EAF6" stroke-width="1.5" stroke-linecap="round" stroke-linejoin="round"/>
<path d="M3.37503 235.556C4.47753 236.246 5.91752 236.449 7.39127 236.786C13.6463 238.219 19.8825 239.745 26.1413 241.144C30.435 242.1 34.6838 243.067 38.9213 244.215C42.2625 245.119 46.71 245.962 46.9425 242.186C47.1713 238.481 40.7513 239.025 37.7625 238.459C31.5713 237.292 25.3875 235.504 19.245 234.135C16.1125 233.437 12.9813 232.741 9.85127 232.046C8.19752 231.671 5.08502 230.674 3.45377 230.835C1.44002 231.03 1.30878 232.766 2.03253 234.124C2.34383 234.713 2.80744 235.207 3.37503 235.556V235.556Z" stroke="#E0EAF6" stroke-width="1.5" stroke-linecap="round" stroke-linejoin="round"/>
<path d="M37.7158 104.969L37.3234 106.733C37.1619 107.459 37.6194 108.178 38.3452 108.34L66.0152 114.494C66.741 114.656 67.4602 114.198 67.6217 113.472L68.0141 111.708C68.1756 110.982 67.7181 110.263 66.9923 110.102L39.3222 103.947C38.5965 103.786 37.8772 104.243 37.7158 104.969Z" stroke="#E0EAF6" stroke-width="1.5" stroke-linecap="round" stroke-linejoin="round"/>
<path d="M29.9025 210.158C28.83 213.735 23.6775 235.174 23.6775 235.174" stroke="#E0EAF6" stroke-width="1.5" stroke-linecap="round" stroke-linejoin="round"/>
<path d="M51.6074 112.361C47.4299 129.311 43.6274 148.736 39.8474 165.728C38.2011 173.13 34.2224 191.719 31.7474 202.515" stroke="#E0EAF6" stroke-width="1.5" stroke-linecap="round" stroke-linejoin="round"/>
<path d="M45.5512 93.4389L46.0462 95.4189" stroke="#61F370" stroke-width="1.5" stroke-linecap="round" stroke-linejoin="round"/>
<path d="M55.421 84.8214L56.8085 84.1952" stroke="#61F370" stroke-width="1.5" stroke-linecap="round" stroke-linejoin="round"/>
<path d="M50.5354 78.0941L50.3367 78.9828" stroke="#61F370" stroke-width="1.5" stroke-linecap="round" stroke-linejoin="round"/>
<path d="M50.2387 69.2815L50.6325 70.3052" stroke="#61F370" stroke-width="1.5" stroke-linecap="round" stroke-linejoin="round"/>
<path d="M63.0264 74.7789L63.4539 74.2502" stroke="#61F370" stroke-width="1.5" stroke-linecap="round" stroke-linejoin="round"/>
<path d="M68.1603 68.9212L68.8878 68.4562" stroke="#61F370" stroke-width="1.5" stroke-linecap="round" stroke-linejoin="round"/>
<path d="M69.6451 73.3575L70.6351 74.5126" stroke="#61F370" stroke-width="1.5" stroke-linecap="round" stroke-linejoin="round"/>
<path d="M63.0416 80.8726L63.4391 81.8964" stroke="#61F370" stroke-width="1.5" stroke-linecap="round" stroke-linejoin="round"/>
<path d="M61.8526 92.2765L63.2401 91.6502" stroke="#61F370" stroke-width="1.5" stroke-linecap="round" stroke-linejoin="round"/>
<path d="M70.14 84.5065L71.3925 84.4727" stroke="#61F370" stroke-width="1.5" stroke-linecap="round" stroke-linejoin="round"/>
<path d="M67.8678 88.2453L68.1978 89.5653" stroke="#61F370" stroke-width="1.5" stroke-linecap="round" stroke-linejoin="round"/>
<path d="M65.0214 104.07L65.4826 104.794" stroke="#61F370" stroke-width="1.5" stroke-linecap="round" stroke-linejoin="round"/>
<path d="M66.3079 99.679L67.6279 99.349" stroke="#61F370" stroke-width="1.5" stroke-linecap="round" stroke-linejoin="round"/>
<path d="M59.1487 98.5163L59.94 97.7551" stroke="#61F370" stroke-width="1.5" stroke-linecap="round" stroke-linejoin="round"/>
<path d="M58.8563 104.824L57.9451 104.79" stroke="#61F370" stroke-width="1.5" stroke-linecap="round" stroke-linejoin="round"/>
<path d="M52.5114 94.429L53.5014 95.584" stroke="#61F370" stroke-width="1.5" stroke-linecap="round" stroke-linejoin="round"/>
<path d="M55.6983 89.4527L56.5271 89.6777" stroke="#61F370" stroke-width="1.5" stroke-linecap="round" stroke-linejoin="round"/>
<path d="M56.3438 78.4578L55.8825 77.7303" stroke="#61F370" stroke-width="1.5" stroke-linecap="round" stroke-linejoin="round"/>
<path d="M46.2752 87.4316L45.319 87.5328" stroke="#61F370" stroke-width="1.5" stroke-linecap="round" stroke-linejoin="round"/>
<path d="M45.1465 83.2725L45.1127 82.02" stroke="#61F370" stroke-width="1.5" stroke-linecap="round" stroke-linejoin="round"/>
<path d="M41.456 99.679L42.776 99.349" stroke="#61F370" stroke-width="1.5" stroke-linecap="round" stroke-linejoin="round"/>
<path d="M50.321 102.285L50.9472 100.864" stroke="#61F370" stroke-width="1.5" stroke-linecap="round" stroke-linejoin="round"/>
<path d="M58.5978 71.3027L58.2003 70.2789" stroke="#61F370" stroke-width="1.5" stroke-linecap="round" stroke-linejoin="round"/>
<path d="M55.0913 66.0152L56.1151 65.6177" stroke="#61F370" stroke-width="1.5" stroke-linecap="round" stroke-linejoin="round"/>
<path d="M72.5063 4.71379C72.4651 4.11004 71.0963 2.17879 70.6313 1.81879" stroke="#61F370" stroke-width="1.5" stroke-linecap="round" stroke-linejoin="round"/>
<path d="M78.2515 4.18135C78.6003 2.92135 79.7103 1.8226 80.6103 0.881348" stroke="#61F370" stroke-width="1.5" stroke-linecap="round" stroke-linejoin="round"/>
<path d="M83.085 8.53136C84.2635 7.8613 85.6334 7.60767 86.9737 7.81136" stroke="#61F370" stroke-width="1.5" stroke-linecap="round" stroke-linejoin="round"/>
<path d="M118.207 40.23C116.974 37.5863 113.239 38.3138 110.505 38.3775C107.282 38.4769 104.1 39.1315 101.1 40.3125C102.285 42.0675 102.225 46.2375 102.124 48.42C102.089 49.9206 101.899 51.4135 101.557 52.875L101.445 53.205C104.227 54.2625 106.935 55.1888 109.931 55.3125C111.847 55.3913 114.574 55.5563 116.4 54.81C117.742 54.2588 118.65 53.3625 118.905 51.93C119.569 48.4538 119.741 43.5188 118.207 40.23Z" fill="#E0EAF6" stroke="#E0EAF6" stroke-width="1.5" stroke-linecap="round" stroke-linejoin="round"/>
<path d="M102.484 43.9537C103.586 43.6937 104.703 43.5021 105.829 43.3799" stroke="#E0EAF6" stroke-width="1.5" stroke-linecap="round" stroke-linejoin="round"/>
<path d="M102.135 49.5002C102.668 49.6389 104.981 50.4077 105.428 50.6252" stroke="#E0EAF6" stroke-width="1.5" stroke-linecap="round" stroke-linejoin="round"/>
<path d="M101.445 53.2053C100.504 52.9053 96.7913 51.4653 96.7913 51.4653" stroke="#E0EAF6" stroke-width="1.5" stroke-linecap="round" stroke-linejoin="round"/>
<path d="M96.6786 42.7837C96.6786 42.7837 99.1461 41.0662 101.1 40.3087" stroke="#E0EAF6" stroke-width="1.5" stroke-linecap="round" stroke-linejoin="round"/>
<path d="M113.149 35.014V33.6152" stroke="#E0EAF6" stroke-width="1.5" stroke-linecap="round" stroke-linejoin="round"/>
<path d="M127.542 89.9475C128.4 89.9475 131.907 90.1238 132.75 90.0413" stroke="#E0EAF6" stroke-width="1.5" stroke-linecap="round" stroke-linejoin="round"/>
<path d="M168.191 46.6312C169.691 46.7475 173.306 46.1437 174.776 45.81C176.479 45.435 179.044 44.8537 180.401 43.935" stroke="#E0EAF6" stroke-width="1.5" stroke-linecap="round" stroke-linejoin="round"/>
</svg>
