<svg width="198" height="375" viewBox="0 0 198 375" fill="none" xmlns="http://www.w3.org/2000/svg">
<path d="M134.986 37.3146C136.296 37.5335 138.897 37.427 140.637 38.1135C141.289 38.3251 141.855 38.7413 142.254 39.3007C142.652 39.86 142.86 40.5329 142.849 41.2202C142.695 45.0193 137.641 45.0725 135.069 46.1495C134.913 49.4716 134.972 52.8003 135.246 56.1147C135.458 59.0735 134.874 61.5885 137.422 63.6951C139.192 65.1509 142.483 66.3521 144.642 66.8078C150.44 68.0268 155.016 69.0683 160.779 70.7193C164.035 71.6543 170.994 74.477 174.097 77.992" stroke="#4986CB" stroke-width="2.34677" stroke-linecap="round" stroke-linejoin="round"/>
<path d="M72.4033 73.2984C75.4995 70.7564 80.2819 69.6795 84.0186 68.5379C86.5813 67.7502 89.1837 67.098 91.8149 66.5843H91.8678C93.4298 66.2911 94.8416 65.4636 95.8618 64.2432C96.882 63.0228 97.4473 61.4854 97.4609 59.8937C97.6137 38.2038 98.636 30.0127 100.24 24.2518C101.662 19.1148 102.59 13.6599 104.447 8.73465C106.691 2.70312 113.577 1.77927 119.393 1.40855C124.322 1.09668 129.686 1.66158 133.981 4.20365C135.415 5.051 136.331 7.14585 136.548 8.78172" stroke="#4986CB" stroke-width="2.34677" stroke-linecap="round" stroke-linejoin="round"/>
<path d="M142.717 15.8288C142.806 12.9093 141.122 10.3109 138.677 9.63899C136.971 9.15766 135.185 9.03217 133.429 9.27034C130.65 9.73413 128.139 14.8239 130.412 17.7791C126.247 16.7683 131.096 24.4506 131.197 25.0214C131.471 26.5674 129.246 31.3361 132.697 30.7474C132.388 33.554 132.929 35.9859 134.988 37.7757C137.677 40.1125 139.807 38.5249 140.825 35.0048C141.298 33.0726 141.475 31.0797 141.348 29.0944C141.348 28.3809 140.914 28.0539 141.045 27.2571C141.158 26.5495 142.163 25.4257 142.389 24.6111C143.08 22.1435 142.705 19.0337 142.705 16.4532C142.705 16.251 142.711 16.0429 142.717 15.8288Z" stroke="#4986CB" stroke-width="2.34677" stroke-linecap="round" stroke-linejoin="round"/>
<path d="M103.694 12.3348C100.747 11.8153 98.2807 15.2537 99.1896 17.869C96.0634 19.9122 97.4991 23.9636 100.498 24.7984" stroke="#4986CB" stroke-width="2.34677" stroke-linecap="round" stroke-linejoin="round"/>
<path d="M119.339 26.3629L119.614 24.7983" stroke="#4986CB" stroke-width="2.34677" stroke-linecap="round" stroke-linejoin="round"/>
<path d="M111.268 32.6991C108.887 32.8663 106.681 33.5409 105.031 35.4084C103.381 37.2759 103.454 39.779 104.197 41.8918C104.941 44.0046 106.161 45.8276 108.494 44.8799C110.089 44.2332 111.515 42.0368 111.546 40.5037C111.691 41.9308 113.794 43.1629 115.208 43.3357C118.447 43.7315 119.673 40.0466 119.601 37.577C121.414 39.8069 127.699 41.641 127.124 36.908C126.943 35.4363 125.626 34.4886 124.248 33.8698C121.559 32.6712 114.307 32.4817 111.268 32.6991Z" stroke="#4986CB" stroke-width="2.34677" stroke-linecap="round" stroke-linejoin="round"/>
<path d="M113.081 46.6631C116.695 47.001 118.58 45.0403 119.339 43.5725" stroke="#4986CB" stroke-width="2.34677" stroke-linecap="round" stroke-linejoin="round"/>
<path d="M90.7513 174.992C90.7513 169.625 91.205 164.72 91.1763 159.482L83.7799 159.347C83.8373 163.142 83.355 169.335 83.355 173.766" stroke="#4986CB" stroke-width="2.34677" stroke-linecap="round" stroke-linejoin="round"/>
<path d="M165.774 175.917C166.378 172.223 166.435 168.465 165.943 164.756C165.653 162.703 165.019 159.347 165.019 159.347L156.887 159.562C158.029 165.302 157.068 170.659 156.887 176.556" stroke="#4986CB" stroke-width="2.34677" stroke-linecap="round" stroke-linejoin="round"/>
<path d="M134.984 161.064C140.165 161.064 151.723 161.023 156.887 160.911" stroke="#4986CB" stroke-width="2.34677" stroke-linecap="round" stroke-linejoin="round"/>
<path d="M134.984 173.427C140.869 173.427 151.07 174.09 156.887 173.662" stroke="#4986CB" stroke-width="2.34677" stroke-linecap="round" stroke-linejoin="round"/>
<path d="M166.274 161.366C169.578 161.366 171.801 161.516 175.075 161.366C176.36 161.312 180.221 160.995 181.43 160.911C181.43 160.911 182.017 171.356 181.905 173.564C179.042 174.833 175.815 174.761 172.676 174.971C171.561 175.049 166.867 174.887 166.867 174.887" stroke="#4986CB" stroke-width="2.34677" stroke-linecap="round" stroke-linejoin="round"/>
<path d="M113.08 161.604C109.4 161.686 94.485 161.375 92.7417 160.911" stroke="#4986CB" stroke-width="2.34677" stroke-linecap="round" stroke-linejoin="round"/>
<path d="M91.1775 171.863C94.5917 173.012 99.1737 172.888 102.808 173.228C105.043 173.444 110.805 173.469 113.081 173.376" stroke="#4986CB" stroke-width="2.34677" stroke-linecap="round" stroke-linejoin="round"/>
<path d="M83.3549 171.818C80.2991 172.048 76.9888 171.329 74.0951 171.028C74.0951 171.028 73.9678 162.407 73.9678 159.347" stroke="#4986CB" stroke-width="2.34677" stroke-linecap="round" stroke-linejoin="round"/>
<path d="M83.3549 159.699C82.1189 159.699 73.9678 159.347 73.9678 159.347" stroke="#4986CB" stroke-width="2.34677" stroke-linecap="round" stroke-linejoin="round"/>
<path d="M189.278 156.218C191.107 169.58 195.282 204.435 195.763 215.891C196.423 231.52 196.102 248.856 189.515 263.514C187.989 266.916 184.242 270.643 181.919 273.556" stroke="#4986CB" stroke-width="2.34677" stroke-linecap="round" stroke-linejoin="round"/>
<path d="M189.742 242.266C189.742 244.596 188.817 256.075 185.048 256.347" stroke="#4986CB" stroke-width="2.34677" stroke-linecap="round" stroke-linejoin="round"/>
<path d="M58.1635 164.041C58.1202 167.228 57.2603 186.157 56.982 191.548C56.3633 204.16 57.1799 216.97 57.6006 229.564C57.9005 237.302 58.7562 245.013 60.1617 252.641C61.1205 257.916 61.9123 263.049 64.4239 267.837C66.0158 270.654 68.1989 273.133 70.8389 275.121" stroke="#4986CB" stroke-width="2.34677" stroke-linecap="round" stroke-linejoin="round"/>
<path d="M66.1453 250.089C66.7694 251.939 67.3623 263.372 70.8388 262.564" stroke="#4986CB" stroke-width="2.34677" stroke-linecap="round" stroke-linejoin="round"/>
<path d="M74.6669 171.863C73.8118 199.215 70.7204 225.487 71.4889 252.939C71.6738 259.433 70.8533 265.791 70.8417 272.284C70.7782 299.877 71.6738 326.231 74.4647 353.73C74.7421 356.501 74.0256 358.574 76.776 359.76C80.0638 361.169 101.796 361.662 106.465 360.587C110.007 359.771 109.666 358.327 110.244 354.852C112.994 338.178 112.399 322.351 113.445 305.707C113.965 297.399 114.468 273.64 114.791 265.48C115.612 244.644 119.009 191.677 119.339 186.106" stroke="#4986CB" stroke-width="2.34677" stroke-linecap="round" stroke-linejoin="round"/>
<path d="M117.774 184.379C121.848 186.753 127.664 186.033 131.855 184.79" stroke="#4986CB" stroke-width="2.34677" stroke-linecap="round" stroke-linejoin="round"/>
<path d="M128.726 185.558C128.726 195.71 129.335 205.844 129.962 215.966C130.363 222.507 130.386 229.054 130.903 235.595C132.221 252.264 133.341 269.526 133.423 286.242C133.527 306.335 134.125 325.793 134.741 345.944C134.944 352.72 133.44 361.545 138.648 361.157C146.021 360.605 171.823 361.826 174.644 359.807C176.142 358.732 177.123 340.02 177.71 332.798C179.405 312.195 180.775 290.03 181.774 269.327C182.552 253.127 182.894 236.957 183.434 220.758C183.695 212.843 182.854 204.905 182.616 197.019C182.476 192.533 180.653 173.427 180.653 173.427" stroke="#4986CB" stroke-width="2.34677" stroke-linecap="round" stroke-linejoin="round"/>
<path d="M140.6 368.063C141.924 367.917 143.29 367.95 144.545 367.764C147.183 367.473 149.835 367.384 152.483 367.498C157.637 367.498 162.791 367.259 167.939 367.658C170.274 367.837 177.098 367.791 177.226 373.427C177.226 373.427 174.308 373.427 172.807 373.427C169.942 373.494 167.099 373.427 164.245 373.487C157.375 373.693 150.505 373.381 143.664 373.64C141.866 373.707 138.113 373.68 138.113 373.68C138.113 372.178 138.113 370.097 138.218 368.595C138.988 368.3 139.789 368.121 140.6 368.063V368.063Z" fill="#4986CB" stroke="#4986CB" stroke-width="2.34677" stroke-linecap="round" stroke-linejoin="round"/>
<path d="M107.442 368.009C106.116 367.87 104.749 367.899 103.494 367.714C100.878 367.325 98.1784 367.441 95.5562 367.452C90.401 367.481 85.2518 367.835 80.0966 368.224C77.7836 368.398 70.9278 367.644 70.8386 373.198C72.2122 374.045 97.5541 373.36 104.398 373.616C106.182 373.68 109.952 373.685 109.952 373.685C109.952 372.2 109.91 370.052 109.809 368.572C109.053 368.271 108.256 368.081 107.442 368.009V368.009Z" fill="#4986CB" stroke="#4986CB" stroke-width="2.34677" stroke-linecap="round" stroke-linejoin="round"/>
<path d="M178.878 159.347L178.79 156.218" stroke="#4986CB" stroke-width="2.34677" stroke-linecap="round" stroke-linejoin="round"/>
<path d="M132.296 159.347H115.768C114.284 159.347 113.081 160.531 113.081 161.993V172.346C113.081 173.807 114.284 174.992 115.768 174.992H132.296C133.78 174.992 134.984 173.807 134.984 172.346V161.993C134.984 160.531 133.78 159.347 132.296 159.347Z" stroke="#4986CB" stroke-width="2.34677" stroke-linecap="round" stroke-linejoin="round"/>
<path d="M106.822 26.3629L107.098 24.7983" stroke="#4986CB" stroke-width="2.34677" stroke-linecap="round" stroke-linejoin="round"/>
<path d="M20.7742 153.089L6.6936 157.782" stroke="#4986CB" stroke-width="2.34677" stroke-linecap="round" stroke-linejoin="round"/>
<path d="M23.9032 173.427C19.8403 174.92 13.3634 176.573 9.82251 178.121" stroke="#4986CB" stroke-width="2.34677" stroke-linecap="round" stroke-linejoin="round"/>
<path d="M16.0803 157.782L19.2094 156.218" stroke="#4986CB" stroke-width="2.34677" stroke-linecap="round" stroke-linejoin="round"/>
<path d="M22.3387 84.2499C15.287 87.3414 8.48604 91.0035 2 95.2015" stroke="#4986CB" stroke-width="2.34677" stroke-linecap="round" stroke-linejoin="round"/>
<path d="M28.597 104.589C21.9932 108.16 8.2583 115.54 8.2583 115.54" stroke="#4986CB" stroke-width="2.34677" stroke-linecap="round" stroke-linejoin="round"/>
<path d="M25.4678 101.46C26.5666 101.082 27.6178 100.556 28.5968 99.8953" stroke="#4986CB" stroke-width="2.34677" stroke-linecap="round" stroke-linejoin="round"/>
<path d="M81.7903 154.792C78.9674 156.72 75.8263 157.875 72.4789 158.902C67.7642 160.334 63.0496 161.945 58.3349 163.284C52.972 164.797 47.3379 166.344 41.9691 167.695C38.9222 168.463 33.7184 169.473 33.7184 169.473L27.8251 170.298L25.4678 153.089L81.7903 154.792Z" fill="#ABDDDF" stroke="#ABDDDF" stroke-width="2.34677" stroke-linecap="round" stroke-linejoin="round"/>
<path d="M54.7726 90.0934C50.9375 91.4454 47.4111 94.3726 43.76 96.236C41.3378 97.4762 38.9572 98.8869 36.4519 99.8627C37.384 101.943 32.7415 104.448 33.3648 100.932C33.4361 101.885 32.8305 104.594 31.5066 104.589C30.4618 104.589 30.3787 103.09 30.1174 102.296C29.0191 98.9692 27.3747 95.8304 26.1576 92.4975C25.0831 89.5585 23.308 86.8605 22.6609 83.7922C22.5422 83.2514 22.1741 82.211 22.4235 81.6467C22.8687 80.6475 24.9287 79.7481 25.4631 81.1118C25.4631 79.8481 26.7038 77.4733 29.2151 78.5431C29.2151 78.5431 35.1518 75.0986 36.9921 74.2992C41.6804 72.2253 46.5135 70.4887 51.454 69.1031C56.3815 67.7394 61.7601 69.5263 66.6579 70.2787C71.1164 70.984 75.6046 72.095 79.9087 73.2177C81.7728 73.6938 84.8361 74.4285 84.9193 76.2448" fill="#ABDDDF"/>
<path d="M54.7726 90.0934C50.9375 91.4454 47.4111 94.3726 43.76 96.236C41.3378 97.4762 38.9572 98.8869 36.4519 99.8627C37.384 101.943 32.7415 104.448 33.3648 100.932C33.4361 101.885 32.8305 104.594 31.5066 104.589C30.4618 104.589 30.3787 103.09 30.1174 102.296C29.0191 98.9692 27.3747 95.8304 26.1576 92.4975C25.0831 89.5585 23.308 86.8605 22.6609 83.7922C22.5422 83.2514 22.1741 82.211 22.4235 81.6467C22.8687 80.6475 24.9287 79.7481 25.4631 81.1118C25.4631 79.8481 26.7038 77.4733 29.2151 78.5431C29.2151 78.5431 35.1518 75.0986 36.9921 74.2992C41.6804 72.2253 46.5135 70.4887 51.454 69.1031C56.3815 67.7394 61.7601 69.5263 66.6579 70.2787C71.1164 70.984 75.6046 72.095 79.9087 73.2177C81.7728 73.6938 84.8361 74.4285 84.9193 76.2448" stroke="#ABDDDF" stroke-width="2.34677" stroke-linecap="round" stroke-linejoin="round"/>
<path d="M66.1453 71.734C67.165 72.6354 76.201 76.7173 75.4929 77.9921" stroke="#4986CB" stroke-width="2.34677" stroke-linecap="round" stroke-linejoin="round"/>
<path d="M52.0645 76.4275V78.0973C55.8885 78.2684 58.8952 79.3717 58.6675 81.7613C58.5157 83.3957 55.0361 85.0596 52.0645 86.2514V142.121C53.3691 141.835 54.6995 141.687 56.0344 141.679C59.6133 141.679 59.1462 144.475 56.9452 146.794C55.5148 148.299 53.7575 150.039 52.0645 151.662V154.653H191.306V76.4275H52.0645Z" fill="#4986CB" stroke="#4986CB" stroke-width="2.34677" stroke-linecap="round" stroke-linejoin="round"/>
<path d="M115.182 113.894C113.502 112.566 111.67 111.027 110.775 109.065C109.019 105.136 109.879 99.4869 115.241 100.736C117.992 101.37 119.525 103.754 121.679 105.16C123.435 101.871 124.606 97.7969 128.574 98.3884C132.543 98.9799 132.303 103.603 131.009 107.683C129.844 111.175 128.14 114.45 125.964 117.383C125.473 118.018 124.778 118.452 124.005 118.607C123.231 118.762 122.43 118.627 121.744 118.228C119.471 116.926 117.279 115.478 115.182 113.894V113.894Z" fill="#F15D4A" stroke="#F15D4A" stroke-width="2.34677" stroke-linecap="round" stroke-linejoin="round"/>
<path d="M103.893 106.513C103.126 103.156 101.734 98.4894 105.878 96.6918C109.135 95.281 113.968 99.4835 115.702 94.9536C117.375 90.5607 114.772 85.0606 109.98 84.4296C106.01 83.8999 97.9863 84.4296 94.9877 87.5309C91.1196 91.5191 93.3206 98.924 93.7883 103.704C94.1421 107.442 93.3026 112.93 96.0912 115.918C97.7044 117.651 103.761 119.948 105.734 117.799C107.869 115.496 104.457 108.984 103.893 106.513Z" stroke="#FAB550" stroke-width="2.34677" stroke-linecap="round" stroke-linejoin="round"/>
<path d="M134.144 92.9339C131.755 91.7681 129.085 92.5725 126.911 93.5168C124.737 94.4611 122.133 93.0563 122.503 89.8038C122.874 86.5513 126.684 83.2755 132.657 82.7742C141.753 82.0106 149.78 86.1666 150.443 95.4986C150.826 100.844 150.969 109.604 147.224 114.081C146.03 115.538 142.022 117.497 139.991 117.036C137.961 116.576 137.781 114.477 137.686 112.606C137.483 108.45 138.253 104.23 137.913 100.08C137.839 98.6397 137.541 97.2185 137.029 95.8658C136.473 94.573 135.445 93.528 134.144 92.9339V92.9339Z" stroke="#FAB550" stroke-width="2.34677" stroke-linecap="round" stroke-linejoin="round"/>
<path d="M88.0481 115.54C89.4778 117.234 91.0479 118.804 92.7416 120.234" stroke="#FAB550" stroke-width="2.34677" stroke-linecap="round" stroke-linejoin="round"/>
<path d="M88.0481 121.798C89.0591 123.046 89.9993 124.277 91.1771 124.927" stroke="#FAB550" stroke-width="2.34677" stroke-linecap="round" stroke-linejoin="round"/>
<path d="M89.6128 129.621C90.4955 130.259 91.5561 130.79 92.7418 131.185" stroke="#FAB550" stroke-width="2.34677" stroke-linecap="round" stroke-linejoin="round"/>
<path d="M91.1773 137.444C90.5984 137.081 90.0677 136.551 89.6128 135.879" stroke="#FAB550" stroke-width="2.34677" stroke-linecap="round" stroke-linejoin="round"/>
<path d="M158.452 115.54C157.468 117.072 153.831 119.284 152.194 120.234" stroke="#FAB550" stroke-width="2.34677" stroke-linecap="round" stroke-linejoin="round"/>
<path d="M158.451 121.798C157.17 123.087 155.573 124.152 153.758 124.927" stroke="#FAB550" stroke-width="2.34677" stroke-linecap="round" stroke-linejoin="round"/>
<path d="M156.887 129.621C155.907 130.19 154.861 130.713 153.758 131.185" stroke="#FAB550" stroke-width="2.34677" stroke-linecap="round" stroke-linejoin="round"/>
<path d="M155.323 136.501C155.878 136.342 156.404 136.133 156.887 135.879" stroke="#FAB550" stroke-width="2.34677" stroke-linecap="round" stroke-linejoin="round"/>
<path d="M98.6188 141.756C97.8588 138.176 97.7406 134.361 97.5998 130.705C97.5097 128.295 96.8735 124.357 98.9116 122.605C100.708 121.065 102.419 122.141 104.294 122.482C105.983 122.788 107.672 122.482 109.361 122.341C113.403 122.059 116.708 124.692 113.093 128.189C109.592 131.587 106.18 134.855 104.879 139.857C103.934 143.548 99.3789 145.335 98.6188 141.756Z" stroke="#FAB550" stroke-width="2.34677" stroke-linecap="round" stroke-linejoin="round"/>
<path d="M121.086 132.327C120.334 129.834 122.005 127.965 124.268 127.346C127.421 126.485 130.115 129.106 133.056 129.215C136.761 129.354 135.434 126.582 135.664 124.24C135.865 122.159 137.507 121.704 139.38 121.813C144.4 122.129 147.352 126.782 147.496 131.739C147.662 137.351 143.09 142.344 138.047 143.454C133.768 144.4 128.053 142.556 125.101 139.28C123.307 137.292 121.938 134.921 121.086 132.327V132.327Z" stroke="#FAB550" stroke-width="2.34677" stroke-linecap="round" stroke-linejoin="round"/>
<path d="M106.822 149.385C106.822 144.435 111.381 139.497 116.029 140.778C119.495 141.726 121.158 145.215 124.53 146.261C125.517 146.567 132.238 146.986 129.735 149.57C129.054 150.273 124.8 149.81 123.989 149.81C121.152 149.81 118.355 149.717 115.547 149.608C112.739 149.499 106.822 149.385 106.822 149.385Z" stroke="#FAB550" stroke-width="2.34677" stroke-linecap="round" stroke-linejoin="round"/>
<path d="M41.1128 93.6372C42.6991 92.4229 43.5811 90.407 45.0128 89.1319C45.889 88.3608 47.1603 88.294 48.1969 87.8568C50.2586 86.9946 58.0814 84.3533 58.3105 81.7849C58.6312 78.2633 52.4462 77.4557 46.7079 78.2997" stroke="#4986CB" stroke-width="2.34677" stroke-linecap="round" stroke-linejoin="round"/>
<path d="M49.8786 155.232C52.2859 153.043 55.6918 149.823 58.1407 147.279C60.3816 144.948 60.8571 142.149 57.2135 142.137C53.5698 142.125 50.3006 143.323 46.8175 144.456C41.6878 146.152 36.5701 147.676 31.4345 149.349C29.8593 149.865 28.9142 150.167 27.4877 149.87C26.4296 149.651 27.2083 148.601 25.5796 149.212C25.1297 149.396 24.7429 149.706 24.4664 150.105C24.1899 150.504 24.0356 150.975 24.0223 151.46C22.6374 148.038 20.5808 151.679 20.7888 153.707C21.0384 156.151 21.3832 158.025 21.7398 160.432C22.2213 163.7 22.7622 167.175 23.8499 170.289C24.4027 171.872 24.9734 174.642 26.2275 175.804C28.5695 178.022 30.0436 174.861 30.0495 172.477C30.8698 175.187 33.4316 173.106 33.7526 170.971" fill="#ABDDDF"/>
<path d="M49.8786 155.232C52.2859 153.043 55.6918 149.823 58.1407 147.279C60.3816 144.948 60.8571 142.149 57.2135 142.137C53.5698 142.125 50.3006 143.323 46.8175 144.456C41.6878 146.152 36.5701 147.676 31.4345 149.349C29.8593 149.865 28.9142 150.167 27.4877 149.87C26.4296 149.651 27.2083 148.601 25.5796 149.212C25.1297 149.396 24.7429 149.706 24.4664 150.105C24.1899 150.504 24.0356 150.975 24.0223 151.46C22.6374 148.038 20.5808 151.679 20.7888 153.707C21.0384 156.151 21.3832 158.025 21.7398 160.432C22.2213 163.7 22.7622 167.175 23.8499 170.289C24.4027 171.872 24.9734 174.642 26.2275 175.804C28.5695 178.022 30.0436 174.861 30.0495 172.477C30.8698 175.187 33.4316 173.106 33.7526 170.971" stroke="#ABDDDF" stroke-width="2.34677" stroke-linecap="round" stroke-linejoin="round"/>
<path d="M23.9033 149.96C24.1263 150.889 24.2495 152.641 24.5487 153.089" stroke="#4986CB" stroke-width="2.34677" stroke-linecap="round" stroke-linejoin="round"/>
<path d="M31.7258 160.911C32.1355 162.957 33.1858 168.426 33.2903 170.298" stroke="#4986CB" stroke-width="2.34677" stroke-linecap="round" stroke-linejoin="round"/>
<path d="M139.677 368.992V361.169" stroke="#4986CB" stroke-width="2.34677" stroke-linecap="round" stroke-linejoin="round"/>
<path d="M166.274 367.427C166.622 365.353 166.847 363.265 166.949 361.169" stroke="#4986CB" stroke-width="2.34677" stroke-linecap="round" stroke-linejoin="round"/>
<path d="M106.822 367.427C106.822 365.534 106.822 361.169 106.822 361.169" stroke="#4986CB" stroke-width="2.34677" stroke-linecap="round" stroke-linejoin="round"/>
<path d="M81.7905 368.992V361.169" stroke="#4986CB" stroke-width="2.34677" stroke-linecap="round" stroke-linejoin="round"/>
</svg>
