<svg width="244" height="220" viewBox="0 0 244 220" fill="none" xmlns="http://www.w3.org/2000/svg">
<path d="M16.7482 59.5105C18.35 56.9698 20.8578 56.5807 22.813 56.8426C24.5087 57.0708 25.2381 58.7771 24.0951 60.0718C22.7791 61.5685 21.3804 62.025 21.2639 63.6228H21.7038C24.0349 63.6228 30.2501 63.4245 31.4795 63.3871C31.4409 62.8442 31.2993 62.3134 31.0622 61.823C30.5208 60.7004 29.0582 59.8061 27.9001 59.3796C27.1256 59.0952 25.8021 58.7285 25.5727 57.8005C25.0501 55.6789 27.7986 54.706 29.2462 54.6648C31.9683 54.5825 34.3784 57.0409 35.4086 59.1962C36.0419 60.4825 36.4779 61.8561 36.702 63.2711H37.078L39.1422 63.2262L39.1009 63.4133C40.8868 73.838 56.1182 75.8661 63.3297 78.1112C70.5412 80.3563 76.7826 84.0757 78.843 87.492C82.0841 92.854 82.3661 96.3901 82.3661 96.3901V97C84.0054 96.2791 85.6347 95.6018 87.2539 94.9682L87.4043 94.9345C87.833 94.0552 88.803 93.3068 90.4912 92.768C91.9247 92.3784 93.4089 92.2055 94.8941 92.2553C96.6048 92.2553 97.071 91.9672 97.8193 93.2769L99.0149 92.9027C98.966 92.8166 98.9172 92.7343 98.872 92.6482C99.1978 92.1667 99.5761 91.7224 100 91.3236L99.906 91.0467C94.7324 80.5471 87.363 78.6987 83.2158 76.9026C79.2792 75.2075 72.4963 72.9512 68.5221 71.0653C65.4841 69.621 61.7956 66.0962 60.7241 63.0578V62.9193L64.9803 62.8894C68.977 62.8894 73.8612 62.8183 83.7798 62.8183C93.6984 62.8183 85.8139 49.082 80.5613 43.8734C77.3579 40.6966 73.4175 38.0586 69.0786 39.009C61.7994 40.6142 63.7621 47.7125 63.8974 53.793C60.7053 48.9062 52.7343 31.342 44.3722 33.1268C39.4054 34.1858 41.4508 42.7097 42.8683 45.7742C38.582 40.5095 19.8389 32.8611 12.9357 36.9697C5.41589 41.4374 15.3496 47.5591 21.4932 52.1503C17.0979 49.9426 14.7442 49.531 9.83754 50.0437C5.77308 50.4815 1.99062 51.4693 1.14464 55.9333C0.155788 61.142 4.38568 63.417 9.29987 63.417C11.0708 63.417 12.7477 63.4694 14.9886 63.5218H15.3646C15.3872 62.2757 15.8007 60.9998 16.7482 59.5105Z" fill="#ABDDDF" stroke="#ABDDDF" stroke-width="1.12425" stroke-linecap="round" stroke-linejoin="round"/>
<path d="M242.813 41.4869C241.274 35.2002 227.929 35.3844 223.403 38.1801C227.667 34.4224 230.9 26.967 227.704 22.3187C224.509 17.6704 220.017 16.7573 213.377 17.5238C206.736 18.2904 201.751 21.1688 192.288 27.572C197.214 18.5535 195.211 2.10208 182.333 2.04195C173.528 2.00062 164.952 5.90867 160.557 10.8614C158.961 7.40425 155.583 2.92126 149.085 1.51963C141.334 -0.152566 135.467 2.49288 133.083 5.45022C130.698 8.40756 133.105 14.9723 134.902 18.2904C136.7 21.6085 142.403 27.0046 150.191 31.5064C143.169 28.2672 137.713 27.3729 131.431 26.9971C125.328 26.6476 120.089 26.8505 114.031 28.0643C111.987 28.4739 107.936 29.1202 107.783 31.7243C107.573 35.2942 116.214 36.305 118.829 36.9513C113.385 35.7489 97.476 36.7033 97.0126 44.6434C96.7323 49.1414 101.194 50.7084 103.81 51.0842C104.075 50.2232 104.535 49.4357 105.153 48.7836C105.772 48.1316 106.533 47.6328 107.375 47.3265C112.2 45.5265 117.888 45.9361 122.559 48.0028C124.764 48.9799 125.896 50.9301 126.408 53.1021C135.003 52.8391 143.561 52.7263 152.13 52.6249C154.783 60.7679 153.106 69.1326 150.004 76.216C145.938 85.5088 134.899 86.3318 127.701 92.036C128.169 92.5952 128.414 93.3087 128.389 94.0389L129.424 94.3508C130.661 93.1671 132.634 93.0506 134.488 93.4339C136.102 93.7683 138.4 94.0164 138.879 95.5232L138.968 95.4969C140.588 95.9086 142.184 96.4104 143.748 97H143.774C147.246 93.216 150.127 90.206 153.304 87.2975C164.193 77.2756 172.306 68.9785 185.121 62.147C192.815 58.0435 196.224 55.8866 200.375 51.7042C207.764 51.3923 215.152 50.9527 222.543 50.3026C227.794 49.8667 244.973 50.2988 242.813 41.4869ZM181.455 52.2528C181.174 55.5784 180.162 58.9379 177.759 61.2714C174.799 64.0673 171.68 66.6871 168.416 69.1176C165.77 71.1017 162.788 73.5329 160.568 75.9567C162.968 72.9505 164.47 68.1819 165.957 64.6346C167.732 60.4071 168.805 56.3262 168.853 52.6399V52.4708C173.685 52.4144 175.902 52.3468 180.73 52.2453L181.455 52.2528Z" fill="#ABDDDF" stroke="#ABDDDF" stroke-width="1.12425" stroke-linecap="round" stroke-linejoin="round"/>
<path d="M164.509 214.939C165.502 217.794 170.913 219.029 172.565 215.933C174.541 212.238 169.313 210.077 166.239 210.283C163.039 202.991 160.229 197.617 152.622 193.542C143.021 188.396 133.137 185.981 122.081 186C110.545 186.023 98.4984 186.441 87.0699 187.739C78.7265 188.685 70.5134 191.233 63.9228 196.239C60.2014 199.06 55.5273 204.825 56.2158 209.614C53.5848 209.409 50.7602 213.67 52.5763 215.565C54.2658 217.323 57.6448 215.774 59.3678 214.939C71.0344 218.205 86.0577 217.977 98.3495 218.615C114.861 219.488 131.585 218.71 147.952 217.931C152.31 217.726 161.691 218.588 164.509 214.939Z" fill="#FAB550" stroke="#FAB550" stroke-width="1.499" stroke-linecap="round" stroke-linejoin="round"/>
<path d="M70 208C82.8887 200.202 98.8295 197 113.857 197C123.863 197 133.737 198.076 143.303 201.145C147.61 202.527 152.324 205.568 156 207.91" stroke="#442257" stroke-width="1.499" stroke-linecap="round" stroke-linejoin="round"/>
<path d="M103 190C106.798 190.523 110.5 191.533 114 193" stroke="#442257" stroke-width="1.499" stroke-linecap="round" stroke-linejoin="round"/>
<path d="M116 190C117.789 190.408 119.346 191.261 121 192" stroke="#442257" stroke-width="1.499" stroke-linecap="round" stroke-linejoin="round"/>
<path d="M167 214C167.501 214.49 168.204 214.842 169 215" stroke="#442257" stroke-width="1.499" stroke-linecap="round" stroke-linejoin="round"/>
<path d="M56 214C56.2101 213.937 56.4078 213.815 56.5801 213.642C56.7525 213.47 56.8955 213.251 57 213" stroke="#442257" stroke-width="1.499" stroke-linecap="round" stroke-linejoin="round"/>
<path d="M56 210C56.1147 211.56 56.9221 213.442 59 214" stroke="#442257" stroke-width="1.499" stroke-linecap="round" stroke-linejoin="round"/>
<path d="M166 215C167.403 213.915 168.296 212.599 167.909 211" stroke="#442257" stroke-width="1.499" stroke-linecap="round" stroke-linejoin="round"/>
<path d="M115.888 98.1611L114.745 97L114.025 97.7925C113.381 98.8229 112.333 100.234 111 101.05C111.99 104.034 116.387 105.647 119 101.482C117.824 100.526 116.777 99.4086 115.888 98.1611Z" fill="#F15D4A" stroke="#F15D4A" stroke-width="1.499" stroke-linecap="round" stroke-linejoin="round"/>
<path d="M114.155 120.174C114.245 120.442 114.308 120.719 114.343 121V120.894C114.704 120.007 116.456 117.51 118.66 114.137L119 113.379C118.845 111.519 118.147 109.772 117.638 108.278C117.302 107.305 116.272 104.148 116.272 104.148L113.505 104C113.017 105.895 110.614 111.541 110 113.77C111.575 115.839 113.526 118.362 114.155 120.174Z" fill="#F15D4A" stroke="#F15D4A" stroke-width="1.499" stroke-linecap="round" stroke-linejoin="round"/>
<path d="M126.136 90C126.136 90 126.25 80.5559 126.31 78.7501C127.666 79.9174 129.741 79.9703 130.687 77.1711C131.103 75.9509 131.247 74.4549 130.199 73.6125C129.15 72.7701 127.969 72.9628 126.886 73.2348C126.943 71.5348 126.988 69.8349 126.992 68.1085C126.992 62.8878 127.022 60.9574 126.84 55.7215C126.731 52.5559 125.739 49.2126 122.581 47.8262C117.849 45.7485 112.087 45.3368 107.199 47.1463C103.947 48.3476 103.179 51.3546 102.853 54.5089C102.452 58.381 102.278 59.3783 102.096 63.2769C101.948 66.3821 101.914 69.4987 101.933 72.6228C99.5177 72.0524 96.6745 72.4301 97.0303 76.0831C97.4089 79.8608 99.9758 79.483 102.001 77.9417C102.088 82.5542 102.221 85.3082 102.206 89.9169" stroke="#442257" stroke-width="1.499" stroke-linecap="round" stroke-linejoin="round"/>
<path d="M111 73C112.075 73.675 113.339 74.0232 114.625 73.9988C116.191 73.9988 117.595 73.4607 118 73.1372" stroke="#442257" stroke-width="1.499" stroke-linecap="round" stroke-linejoin="round"/>
<path d="M99 93.6349C99.7883 92.3565 101.43 91.2668 102.218 90C104.903 92.1871 114.724 97.0003 114.724 97.0003C114.724 97.0003 119.819 94.3049 121.902 93.2845C123.555 92.4797 125.032 91.34 126.673 90.4929C127.835 91.8136 129.263 93.1882 128.958 94.6322C128.608 96.311 127.355 97.9244 126.609 99.4377C125.828 101.032 124.461 102.254 122.801 102.842C119.103 104.143 114.716 97.0003 114.716 97.0003C114.716 97.0003 110.984 104.809 106.121 101.02C103.57 99.0141 100.523 96.5844 99 93.6349Z" stroke="#442257" stroke-width="1.499" stroke-linecap="round" stroke-linejoin="round"/>
<path d="M119.544 133.368C119.788 132.046 121.648 129.148 122.37 127.995C124.32 124.868 126.233 121.966 128.307 118.925C130.381 115.884 133.252 112.693 133.91 109.015C134.218 107.27 133.372 103.623 131.137 105.45C133.391 103.449 138.848 99.5795 138.998 95.996C139.088 93.8444 136.341 93.5768 134.489 93.1963C132.14 92.7139 129.603 93.0191 128.593 95.265C126.875 99.1273 126.21 103.009 124.993 106.946C123.678 111.004 122.612 115.139 121.802 119.328C120.198 128.214 119.018 137.144 117.691 146.052C117.316 148.494 117.124 153.513 117 156" stroke="#442257" stroke-width="1.499" stroke-linecap="round" stroke-linejoin="round"/>
<path d="M108 156C107.761 154.879 107.584 146.387 107.464 144.283C107.218 139.908 107.079 135.541 106.589 131.158C105.819 124.25 104.127 117.574 102.485 110.819C101.567 107.053 100.881 103.22 99.6788 99.5134C99.1353 97.8359 98.9349 95.8259 98.0947 94.2829C97.2545 92.7398 96.8151 93.0163 94.9612 93.0238C93.4388 92.9741 91.9174 93.1466 90.448 93.5356C81.8146 96.2032 91.5657 104.176 96.1175 107.053C93.1382 106.504 89.6656 107.427 90.8873 110.472C92.6179 114.772 95.2927 117.492 97.9598 121.22C100.874 125.3 104.643 132.429 107.071 136.912" stroke="#442257" stroke-width="1.499" stroke-linecap="round" stroke-linejoin="round"/>
<path d="M131 114C131 114 135.487 114.483 138 115" stroke="#442257" stroke-width="1.499" stroke-linecap="round" stroke-linejoin="round"/>
<path d="M99 95C101.172 100.062 104.722 106.855 107.913 111.312C109.436 113.44 112.838 117.18 113.717 119.606C114.173 120.857 113.958 122.787 113.891 124.086C113.765 126.658 113.454 129.162 113.324 131.734C113.109 136.019 112.723 140.241 112.316 144.497C112.13 146.426 112.36 146.863 110.726 146.99C109.614 147.076 107.594 146.579 107.25 146.617" stroke="#442257" stroke-width="1.499" stroke-linecap="round" stroke-linejoin="round"/>
<path d="M114 121C114.836 119.001 122.557 108.953 127 99" stroke="#442257" stroke-width="1.499" stroke-linecap="round" stroke-linejoin="round"/>
<path d="M113 146C113.52 146.581 116.103 146.401 118 146.375" stroke="#442257" stroke-width="1.499" stroke-linecap="round" stroke-linejoin="round"/>
<path d="M111 129.375V129" stroke="#442257" stroke-width="1.499" stroke-linecap="round" stroke-linejoin="round"/>
<path d="M110.114 136.671L110.133 136.297" stroke="#442257" stroke-width="1.499" stroke-linecap="round" stroke-linejoin="round"/>
<path d="M109.765 143.546L109.783 143.171" stroke="#442257" stroke-width="1.499" stroke-linecap="round" stroke-linejoin="round"/>
<path d="M138.67 95.2848C145.846 97.0615 153.933 101.282 159.461 105.818C162.459 108.269 164.37 109.787 167.514 111.992C170.063 113.776 173.761 115.867 174.005 119.488C174.046 118.274 173.582 115.414 175.418 115.388C177.449 115.358 177.985 119.552 178.345 120.86C178.079 118.611 177.947 113.142 181.717 116.448C177.033 114.949 188.088 99.5168 190.063 95.5697C192.038 91.6226 195.632 86.1424 195.632 86.1424C196.902 86.1049 203.951 90.6405 205.75 91.6676C208.696 93.3843 212.121 95.0411 214.647 97.2902C211.829 103.977 207.152 112.52 203.34 118.72C200.279 123.638 194.508 134.175 189.49 137.376C184.719 140.438 180.248 139.884 175.021 139.34C171.869 139.01 168.609 136.611 165.839 135.014C162.631 133.17 152.667 127.934 150.186 126.337C148.312 125.137 144.227 122.843 144.227 122.843C144.227 122.843 144.167 128.275 144.167 130.827C144.167 132.612 143.976 134.576 143.935 136.311" stroke="#442257" stroke-width="1.499" stroke-linecap="round" stroke-linejoin="round"/>
<path d="M131.962 141.335C135.47 140.285 139.281 135.795 143.343 136.525C148.346 137.429 139.221 142.853 137.857 143.468C139.326 141.676 143.752 139.108 146.082 140.413C146.191 141.575 145.427 141.968 144.741 142.759C143.242 144.487 141.66 145.81 140.536 147.894" stroke="#442257" stroke-width="1.499" stroke-linecap="round" stroke-linejoin="round"/>
<path d="M196.812 86.3189C196.812 86.3189 198.907 82.5704 200.376 80.7599C204.671 81.6858 214.07 88.5079 214.958 89.7861L212.035 94.989" stroke="#442257" stroke-width="1.499" stroke-linecap="round" stroke-linejoin="round"/>
<path d="M99.8497 155.459C98.4818 156.651 97.4025 158.341 96.297 159.582C93.9811 162.206 91.5864 164.762 89.2105 167.326C87.393 169.287 85.6841 171.363 83.7579 173.222C82.836 174.111 80.5538 176.536 79.8118 177.683C79.0698 178.83 85.0246 177.968 86.3137 176.514C89.8888 172.491 93.2953 168.481 96.8067 164.417C97.7473 163.334 103.024 157.134 104.86 154.975C104.919 154.905 104.958 154.821 104.972 154.731C104.986 154.64 104.974 154.548 104.939 154.464C104.904 154.38 104.846 154.307 104.772 154.253C104.697 154.2 104.61 154.168 104.519 154.162C103.792 154.089 103.06 154.071 102.33 154.109C101.404 154.344 100.551 154.808 99.8497 155.459Z" fill="#442257" stroke="#442257" stroke-width="1.499" stroke-linecap="round" stroke-linejoin="round"/>
<path d="M89.2404 173.2C87.8389 176.574 88.8657 182.226 92.7443 181.525C95.2364 181.075 95.9259 174.609 93.2727 174.208C91.6238 173.957 91.9686 176.023 92.5007 177.016C94.8167 181.349 99.5198 177.994 97.8222 173.98C97.0352 172.105 94.0072 170.329 92.2834 169.684" stroke="#442257" stroke-width="1.499" stroke-linecap="round" stroke-linejoin="round"/>
<path d="M104.699 155.732C112.977 156.152 130.295 155.732 130.295 155.732" stroke="#442257" stroke-width="1.499" stroke-linecap="round" stroke-linejoin="round"/>
<path d="M185.7 139.127C190.602 139.254 198.033 139.689 202.452 141.522C207.02 143.396 210.561 146.208 212.401 151.021C214.71 157.063 213.818 164.14 210.396 169.59C208.523 172.567 205.952 175.213 202.429 175.925C198.528 176.716 194.417 177.62 190.404 177.766C179.026 178.182 167.623 178.377 156.23 178.943C146.303 179.434 135.941 179.43 125.471 178.298C125.823 172.878 127.404 168.552 128.173 164.639C128.752 161.685 129.522 158.771 130.477 155.916C130.852 154.878 131.167 153.667 132.284 153.214C134.079 152.501 137.905 152.689 139.899 152.599C148.173 152.224 156.249 151.223 164.512 150.908C173.244 150.571 186.083 149.409 194.076 153.581C192.761 153.304 190.13 151.471 190.771 150.275C191.412 149.079 193.686 149.847 195.182 150.054" stroke="#442257" stroke-width="1.499" stroke-linecap="round" stroke-linejoin="round"/>
<path d="M145.67 141.845C145.67 141.845 160.195 140.177 164.28 139.854C167.893 139.569 170.227 139.262 173.847 139.127" stroke="#442257" stroke-width="1.499" stroke-linecap="round" stroke-linejoin="round"/>
<path d="M98.0098 174.512C102.256 175.098 106.539 175.378 110.826 175.351C114.903 175.351 125.381 175.898 125.381 175.898" stroke="#442257" stroke-width="1.499" stroke-linecap="round" stroke-linejoin="round"/>
<path d="M84.0723 122.93C82.9105 122.769 82.4833 124.373 82.4721 125.617C83.1879 125.456 84.0086 125.044 84.833 125.186C81.8687 125.726 82.2547 129.201 82.1423 131.649C82.0636 133.395 81.9961 136.402 82.9855 137.837" stroke="#442257" stroke-width="1.499" stroke-linecap="round" stroke-linejoin="round"/>
<path d="M90.7886 140.547C89.1472 139.711 80.7415 135.937 80.1082 138.894C79.7072 140.768 82.5104 141.732 83.807 142.328C86.2091 143.452 87.8805 144.899 90.0053 146.537C91.4069 147.714 92.6862 149.029 93.824 150.462" stroke="#442257" stroke-width="1.499" stroke-linecap="round" stroke-linejoin="round"/>
<path d="M86.9842 95.3642C79.1679 98.4389 71.6637 102.255 64.5742 106.759C61.6998 108.596 59.279 110.804 58.3009 114.208C58.6981 113.109 59.8561 110.669 58.7393 109.736C57.5101 108.716 55.6589 110.242 55.0743 111.28C54.4897 112.318 55.1455 113.641 56.4121 112.817C57.8324 111.887 58.3084 108.735 57.5888 107.494C56.5433 105.684 55.093 103.315 53.9013 101.662C52.7958 100.128 51.5516 98.6628 50.5473 97.0622C48.8797 94.4083 41.5158 82.9981 41.5158 82.9981C41.5158 82.9981 31.9185 88.5345 27.9162 91.1397C26.3122 92.1855 22.9957 94.1122 21.9951 95.4879C24.0787 99.6899 25.9187 103.914 28.2609 107.97C31.4051 113.413 34.4593 118.646 37.4873 124.152C39.1643 127.185 41.0697 130.086 43.1872 132.83C44.8024 134.918 46.2789 136.818 48.1264 138.58C50.6822 141.02 56.8056 141.616 59.9722 140.578C63.7197 139.352 67.3698 135.918 70.5739 133.681C73.1972 131.844 81.3592 125.603 82.5884 124.546" stroke="#442257" stroke-width="1.499" stroke-linecap="round" stroke-linejoin="round"/>
<path d="M23.5656 93.3811C23.5656 93.3811 21.0697 89.2091 20.3877 87.2487C23.8129 85.1683 26.2525 83.3316 29.7564 81.3262C32.1436 79.958 34.3246 78.9047 36.6706 77.634C37.6936 79.0846 40.0208 83.4028 40.0208 83.4028" stroke="#442257" stroke-width="1.499" stroke-linecap="round" stroke-linejoin="round"/>
<path d="M34.3513 78.0049C33.9278 77.2552 32.159 74.5376 32.7398 73.6867C33.6205 72.3972 35.097 70.9841 35.7941 69.4397C37.2706 66.1561 36.8658 62.8275 35.2994 59.5364C34.2726 57.3773 31.8704 54.9146 29.1572 54.997C27.7145 55.0383 24.975 56.0129 25.4959 58.1382C25.7245 59.0678 27.0437 59.4352 27.8156 59.7201C28.9699 60.1474 30.4389 61.032 30.9673 62.1678C32.1702 64.7092 30.7162 67.0707 28.2841 68.3115C25.6871 69.6384 22.4904 68.8063 21.5386 65.9574C20.3956 62.5501 22.2881 62.3852 24.0232 60.406C25.1474 59.1091 24.4354 57.4073 22.7453 57.1711C20.7966 56.9087 18.297 57.2986 16.7006 59.8438C15.1041 62.3889 14.9842 64.3419 15.8049 66.6134" stroke="#442257" stroke-width="1.499" stroke-linecap="round" stroke-linejoin="round"/>
<path d="M11.5137 70.0395C11.139 66.0062 16.5167 66.2911 18.7989 67.4756C19.8369 68.0154 21.7482 69.0687 22.2503 70.3956C22.7525 71.7226 22.3028 74.0016 19.3722 72.9183" stroke="#442257" stroke-width="1.499" stroke-linecap="round" stroke-linejoin="round"/>
<path d="M12.6457 74.6013C15.2502 76.0819 22.1906 74.9236 18.3531 71.4301C16.6368 69.867 8.90195 69.2635 9.99622 73.4955C7.39546 72.3297 -0.530493 72.3147 1.58684 75.797C2.80478 77.7912 5.39055 77.094 7.41794 77.1764C9.51654 77.2627 14.0285 78.3347 15.7074 79.5979C17.48 80.9324 19.9571 82.7616 22.1156 85.9703" stroke="#442257" stroke-width="1.499" stroke-linecap="round" stroke-linejoin="round"/>
<path d="M201.699 80.385C202.073 79.5978 204.108 76.4641 203.49 75.6357C202.557 74.3875 201.388 73.0381 200.627 71.5125C199.012 68.2926 199.278 64.949 200.706 61.5979C201.639 59.3938 203.94 56.8374 206.653 56.7999C208.096 56.7999 210.873 57.6433 210.442 59.7986C210.25 60.7357 208.943 61.1593 208.193 61.4779C207.069 61.954 205.637 62.8986 205.146 64.0569C204.052 66.6433 205.604 68.9298 208.084 70.0806C210.734 71.2951 213.893 70.3317 214.729 67.4567C215.729 64.0006 213.833 63.9144 212.016 62.0102C210.824 60.762 211.48 59.0115 213.14 58.7266C215.077 58.3817 217.592 58.6666 219.293 61.1443C220.995 63.622 221.193 65.5525 220.47 67.869" stroke="#442257" stroke-width="1.499" stroke-linecap="round" stroke-linejoin="round"/>
<path d="M224.907 71.1041C225.114 67.0595 219.755 67.5731 217.525 68.855C216.509 69.436 214.643 70.5681 214.197 71.9138C213.751 73.2594 214.298 75.5197 217.195 74.3128" stroke="#442257" stroke-width="1.499" stroke-linecap="round" stroke-linejoin="round"/>
<path d="M223.97 75.6998C221.429 77.2891 214.448 76.4232 218.132 72.7685C219.784 71.1342 227.5 70.2121 226.571 74.4816C229.194 74.1592 237.041 72.866 235.066 76.4308C233.942 78.4774 231.319 77.8851 229.299 78.0538C227.208 78.2262 222.745 79.4857 221.118 80.8201C219.406 82.2296 216.644 85.6106 214.62 88.8867" stroke="#442257" stroke-width="1.499" stroke-linecap="round" stroke-linejoin="round"/>
<path d="M50.6673 140.173C45.8518 140.173 41.4072 139.49 39.3124 139.64C36.8278 139.82 26.8707 140.529 24.3224 141.042C16.1941 142.669 12.7576 148.07 11.6671 155.286C11.09 159.106 10.7864 163.784 12.8326 167.281C14.77 170.572 19.6343 171.967 23.0895 172.739C28.336 173.916 33.8223 174.085 39.2037 174.358C50.2775 174.92 81.9551 175.138 81.9551 175.138" stroke="#442257" stroke-width="1.499" stroke-linecap="round" stroke-linejoin="round"/>
<path d="M82.6292 141.803C80.4932 141.196 72.4698 140.679 66.3538 140.416C64.9523 140.356 63.3783 140.323 61.1748 140.285" stroke="#442257" stroke-width="1.499" stroke-linecap="round" stroke-linejoin="round"/>
<path d="M37.8961 146.05C36.2659 146.639 34.4746 146.23 32.8669 145.792C33.5715 146.054 36.3034 146.541 36.4833 147.943C36.8243 150.567 30.5622 150.117 29.1494 151.148C30.5847 151.347 32.2299 150.567 33.6239 150.241C35.4977 149.806 37.3339 149.619 39.2227 149.315C42.7828 148.794 46.388 148.652 49.978 148.892C62.6333 149.503 68.1534 149.765 80.7487 150.991C83.0309 151.216 85.3619 151.471 87.5766 151.879C87.9514 154.503 87.8689 158.683 87.8727 161.535C87.8727 163.672 87.408 167.315 87.3031 169.452" stroke="#442257" stroke-width="1.499" stroke-linecap="round" stroke-linejoin="round"/>
<path d="M88.0039 155.631C88.0039 155.631 96.2072 155.885 99.0927 156.193" stroke="#442257" stroke-width="1.499" stroke-linecap="round" stroke-linejoin="round"/>
<path d="M118.598 65.5562C119.388 66.6088 121.513 66.4328 122.132 65.3015" stroke="#442257" stroke-width="1.499" stroke-linecap="round" stroke-linejoin="round"/>
<path d="M103.421 65.9313C103.421 69.1399 109.095 71.434 111.575 67.9929C114.259 64.2745 111.017 60.1812 106.767 61.3057C105.193 61.7218 103.443 62.7189 103.421 65.9313Z" stroke="#442257" stroke-width="1.499" stroke-linecap="round" stroke-linejoin="round"/>
<path d="M124.782 65.9876C124.782 69.2 119.074 71.4603 116.612 68.008C113.952 64.2596 117.216 60.2001 121.462 61.3471C123.028 61.7706 124.804 62.779 124.782 65.9876Z" stroke="#442257" stroke-width="1.499" stroke-linecap="round" stroke-linejoin="round"/>
<path d="M103.421 65.1966L100.798 65.3914" stroke="#442257" stroke-width="1.499" stroke-linecap="round" stroke-linejoin="round"/>
<path d="M112.688 64.4844C113.668 64.249 114.689 64.249 115.668 64.4844" stroke="#442257" stroke-width="1.499" stroke-linecap="round" stroke-linejoin="round"/>
<path d="M109.439 65.5301C108.641 66.5789 106.52 66.3916 105.905 65.2566" stroke="#442257" stroke-width="1.499" stroke-linecap="round" stroke-linejoin="round"/>
<path d="M124.759 65.2527L127.382 65.4625" stroke="#442257" stroke-width="1.499" stroke-linecap="round" stroke-linejoin="round"/>
<path d="M110.812 122.93V122.555" stroke="#442257" stroke-width="1.499" stroke-linecap="round" stroke-linejoin="round"/>
<path d="M143.265 122.978C143.652 123.057 144.054 122.998 144.403 122.813C144.751 122.628 145.025 122.327 145.176 121.963" stroke="#442257" stroke-width="1.499" stroke-linecap="round" stroke-linejoin="round"/>
<path d="M102.121 60.2712C104.801 58.6257 105.869 53.108 105.805 51.2975C107.454 53.7677 111.479 53.3816 114.192 53.3816C117.19 53.3816 120.236 53.1192 122.811 51.7323C122.972 53.8314 124.276 58.1984 126.049 60.2712" stroke="#442257" stroke-width="1.499" stroke-linecap="round" stroke-linejoin="round"/>
</svg>
