<svg width="133" height="152" viewBox="0 0 133 152" fill="none" xmlns="http://www.w3.org/2000/svg">
<path d="M13.6572 68.7416C13.6572 63.4376 14.7019 58.1851 16.7317 53.2849C18.7616 48.3843 21.7367 43.9317 25.4874 40.181C29.2381 36.4304 33.6906 33.4552 38.591 31.4253C43.4917 29.3957 48.7439 28.3508 54.0482 28.3508V68.7416H13.6572Z" fill="#442781"/>
<path d="M13.6572 68.7416C13.6572 74.0459 14.7019 79.2981 16.7317 84.1987C18.7616 89.0992 21.7367 93.5518 25.4874 97.3024C29.2381 101.053 33.6906 104.028 38.591 106.058C43.4917 108.088 48.7439 109.133 54.0482 109.133V68.7416H13.6572Z" fill="#61459C"/>
<path d="M94.4386 68.7416C94.4386 74.0459 93.3946 79.2981 91.365 84.1987C89.3351 89.0992 86.3602 93.5518 82.6088 97.3024C78.8582 101.053 74.4056 104.028 69.5049 106.058C64.6047 108.088 59.3523 109.133 54.0482 109.133V68.7416H94.4386Z" fill="#A992DB"/>
<path d="M119.343 33.8475C119.343 50.5967 105.764 64.1747 89.0154 64.1747H58.6885V33.8475C58.6885 17.0984 72.2665 3.52039 89.0154 3.52039C105.764 3.52039 119.343 17.0984 119.343 33.8475Z" fill="#FF7917"/>
<path d="M1.52344 130.591H7.88672C9.19141 130.591 10.3125 130.786 11.25 131.177C12.1953 131.567 12.9219 132.145 13.4297 132.911C13.9375 133.677 14.1914 134.618 14.1914 135.735C14.1914 136.649 14.0352 137.434 13.7227 138.091C13.418 138.739 12.9844 139.282 12.4219 139.719C11.8672 140.149 11.2148 140.493 10.4648 140.751L9.35156 141.337H3.82031L3.79688 138.594H7.91016C8.52734 138.594 9.03906 138.485 9.44531 138.266C9.85156 138.048 10.1562 137.743 10.3594 137.352C10.5703 136.962 10.6758 136.509 10.6758 135.993C10.6758 135.446 10.5742 134.973 10.3711 134.575C10.168 134.177 9.85938 133.872 9.44531 133.661C9.03125 133.45 8.51172 133.344 7.88672 133.344H5.03906V147.653H1.52344V130.591ZM11.0625 147.653L7.17188 140.048L10.8867 140.024L14.8242 147.489V147.653H11.0625ZM22.5234 147.887C21.5391 147.887 20.6562 147.731 19.875 147.419C19.0938 147.098 18.4297 146.657 17.8828 146.094C17.3438 145.532 16.9297 144.88 16.6406 144.137C16.3516 143.387 16.207 142.591 16.207 141.747V141.278C16.207 140.317 16.3438 139.438 16.6172 138.641C16.8906 137.844 17.2812 137.153 17.7891 136.567C18.3047 135.981 18.9297 135.532 19.6641 135.219C20.3984 134.899 21.2266 134.739 22.1484 134.739C23.0469 134.739 23.8438 134.887 24.5391 135.184C25.2344 135.481 25.8164 135.903 26.2852 136.45C26.7617 136.997 27.1211 137.653 27.3633 138.419C27.6055 139.177 27.7266 140.02 27.7266 140.95V142.356H17.6484V140.106H24.4102V139.848C24.4102 139.38 24.3242 138.962 24.1523 138.594C23.9883 138.219 23.7383 137.923 23.4023 137.704C23.0664 137.485 22.6367 137.376 22.1133 137.376C21.668 137.376 21.2852 137.473 20.9648 137.669C20.6445 137.864 20.3828 138.137 20.1797 138.489C19.9844 138.841 19.8359 139.255 19.7344 139.731C19.6406 140.2 19.5938 140.716 19.5938 141.278V141.747C19.5938 142.255 19.6641 142.723 19.8047 143.153C19.9531 143.583 20.1602 143.954 20.4258 144.266C20.6992 144.579 21.0273 144.821 21.4102 144.993C21.8008 145.165 22.2422 145.251 22.7344 145.251C23.3438 145.251 23.9102 145.134 24.4336 144.899C24.9648 144.657 25.4219 144.294 25.8047 143.809L27.4453 145.591C27.1797 145.973 26.8164 146.341 26.3555 146.692C25.9023 147.044 25.3555 147.333 24.7148 147.559C24.0742 147.778 23.3438 147.887 22.5234 147.887ZM36.5039 144.149C36.5039 143.907 36.4336 143.688 36.293 143.493C36.1523 143.298 35.8906 143.118 35.5078 142.954C35.1328 142.782 34.5898 142.626 33.8789 142.485C33.2383 142.344 32.6406 142.169 32.0859 141.958C31.5391 141.739 31.0625 141.477 30.6562 141.173C30.2578 140.868 29.9453 140.509 29.7188 140.094C29.4922 139.673 29.3789 139.192 29.3789 138.653C29.3789 138.122 29.4922 137.622 29.7188 137.153C29.9531 136.684 30.2852 136.27 30.7148 135.911C31.1523 135.544 31.6836 135.259 32.3086 135.055C32.9414 134.844 33.6523 134.739 34.4414 134.739C35.543 134.739 36.4883 134.915 37.2773 135.266C38.0742 135.618 38.6836 136.102 39.1055 136.719C39.5352 137.329 39.75 138.024 39.75 138.805H36.375C36.375 138.477 36.3047 138.184 36.1641 137.927C36.0312 137.661 35.8203 137.454 35.5312 137.305C35.25 137.149 34.8828 137.071 34.4297 137.071C34.0547 137.071 33.7305 137.137 33.457 137.27C33.1836 137.395 32.9727 137.567 32.8242 137.786C32.6836 137.997 32.6133 138.231 32.6133 138.489C32.6133 138.684 32.6523 138.86 32.7305 139.016C32.8164 139.165 32.9531 139.302 33.1406 139.427C33.3281 139.552 33.5703 139.669 33.8672 139.778C34.1719 139.88 34.5469 139.973 34.9922 140.059C35.9062 140.247 36.7227 140.493 37.4414 140.798C38.1602 141.094 38.7305 141.501 39.1523 142.016C39.5742 142.524 39.7852 143.192 39.7852 144.02C39.7852 144.583 39.6602 145.098 39.4102 145.567C39.1602 146.036 38.8008 146.446 38.332 146.798C37.8633 147.141 37.3008 147.411 36.6445 147.606C35.9961 147.794 35.2656 147.887 34.4531 147.887C33.2734 147.887 32.2734 147.677 31.4531 147.255C30.6406 146.833 30.0234 146.298 29.6016 145.649C29.1875 144.993 28.9805 144.321 28.9805 143.634H32.1797C32.1953 144.094 32.3125 144.466 32.5312 144.747C32.7578 145.028 33.043 145.231 33.3867 145.356C33.7383 145.481 34.1172 145.544 34.5234 145.544C34.9609 145.544 35.3242 145.485 35.6133 145.368C35.9023 145.243 36.1211 145.079 36.2695 144.876C36.4258 144.665 36.5039 144.423 36.5039 144.149ZM47.8125 147.887C46.8281 147.887 45.9453 147.731 45.1641 147.419C44.3828 147.098 43.7188 146.657 43.1719 146.094C42.6328 145.532 42.2188 144.88 41.9297 144.137C41.6406 143.387 41.4961 142.591 41.4961 141.747V141.278C41.4961 140.317 41.6328 139.438 41.9062 138.641C42.1797 137.844 42.5703 137.153 43.0781 136.567C43.5938 135.981 44.2188 135.532 44.9531 135.219C45.6875 134.899 46.5156 134.739 47.4375 134.739C48.3359 134.739 49.1328 134.887 49.8281 135.184C50.5234 135.481 51.1055 135.903 51.5742 136.45C52.0508 136.997 52.4102 137.653 52.6523 138.419C52.8945 139.177 53.0156 140.02 53.0156 140.95V142.356H42.9375V140.106H49.6992V139.848C49.6992 139.38 49.6133 138.962 49.4414 138.594C49.2773 138.219 49.0273 137.923 48.6914 137.704C48.3555 137.485 47.9258 137.376 47.4023 137.376C46.957 137.376 46.5742 137.473 46.2539 137.669C45.9336 137.864 45.6719 138.137 45.4688 138.489C45.2734 138.841 45.125 139.255 45.0234 139.731C44.9297 140.2 44.8828 140.716 44.8828 141.278V141.747C44.8828 142.255 44.9531 142.723 45.0938 143.153C45.2422 143.583 45.4492 143.954 45.7148 144.266C45.9883 144.579 46.3164 144.821 46.6992 144.993C47.0898 145.165 47.5312 145.251 48.0234 145.251C48.6328 145.251 49.1992 145.134 49.7227 144.899C50.2539 144.657 50.7109 144.294 51.0938 143.809L52.7344 145.591C52.4688 145.973 52.1055 146.341 51.6445 146.692C51.1914 147.044 50.6445 147.333 50.0039 147.559C49.3633 147.778 48.6328 147.887 47.8125 147.887ZM58.3125 137.739V147.653H54.9375V134.973H58.1133L58.3125 137.739ZM62.1328 134.891L62.0742 138.02C61.9102 137.997 61.7109 137.977 61.4766 137.962C61.25 137.938 61.043 137.927 60.8555 137.927C60.3789 137.927 59.9648 137.989 59.6133 138.114C59.2695 138.231 58.9805 138.407 58.7461 138.641C58.5195 138.876 58.3477 139.161 58.2305 139.497C58.1211 139.833 58.0586 140.216 58.043 140.645L57.3633 140.434C57.3633 139.614 57.4453 138.86 57.6094 138.173C57.7734 137.477 58.0117 136.872 58.3242 136.356C58.6445 135.841 59.0352 135.442 59.4961 135.161C59.957 134.88 60.4844 134.739 61.0781 134.739C61.2656 134.739 61.457 134.755 61.6523 134.786C61.8477 134.809 62.0078 134.844 62.1328 134.891ZM68.25 145.192L71.0625 134.973H74.5898L70.3125 147.653H68.1797L68.25 145.192ZM66.3164 134.973L69.1406 145.204L69.1992 147.653H67.0547L62.7773 134.973H66.3164ZM82.7578 144.794V139.145C82.7578 138.739 82.6914 138.391 82.5586 138.102C82.4258 137.805 82.2188 137.575 81.9375 137.411C81.6641 137.247 81.3086 137.165 80.8711 137.165C80.4961 137.165 80.1719 137.231 79.8984 137.364C79.625 137.489 79.4141 137.673 79.2656 137.915C79.1172 138.149 79.043 138.427 79.043 138.747H75.668C75.668 138.208 75.793 137.696 76.043 137.212C76.293 136.727 76.6562 136.302 77.1328 135.934C77.6094 135.559 78.1758 135.266 78.832 135.055C79.4961 134.844 80.2383 134.739 81.0586 134.739C82.043 134.739 82.918 134.903 83.6836 135.231C84.4492 135.559 85.0508 136.052 85.4883 136.708C85.9336 137.364 86.1562 138.184 86.1562 139.169V144.594C86.1562 145.29 86.1992 145.86 86.2852 146.305C86.3711 146.743 86.4961 147.126 86.6602 147.454V147.653H83.25C83.0859 147.309 82.9609 146.88 82.875 146.364C82.7969 145.841 82.7578 145.317 82.7578 144.794ZM83.2031 139.93L83.2266 141.841H81.3398C80.8945 141.841 80.5078 141.891 80.1797 141.993C79.8516 142.094 79.582 142.239 79.3711 142.427C79.1602 142.606 79.0039 142.817 78.9023 143.059C78.8086 143.302 78.7617 143.567 78.7617 143.856C78.7617 144.145 78.8281 144.407 78.9609 144.641C79.0938 144.868 79.2852 145.048 79.5352 145.18C79.7852 145.305 80.0781 145.368 80.4141 145.368C80.9219 145.368 81.3633 145.266 81.7383 145.063C82.1133 144.86 82.4023 144.61 82.6055 144.313C82.8164 144.016 82.9258 143.735 82.9336 143.469L83.8242 144.899C83.6992 145.219 83.5273 145.552 83.3086 145.895C83.0977 146.239 82.8281 146.563 82.5 146.868C82.1719 147.165 81.7773 147.411 81.3164 147.606C80.8555 147.794 80.3086 147.887 79.6758 147.887C78.8711 147.887 78.1406 147.727 77.4844 147.407C76.8359 147.079 76.3203 146.63 75.9375 146.059C75.5625 145.481 75.375 144.825 75.375 144.091C75.375 143.427 75.5 142.837 75.75 142.321C76 141.805 76.3672 141.372 76.8516 141.02C77.3438 140.661 77.957 140.391 78.6914 140.212C79.4258 140.024 80.2773 139.93 81.2461 139.93H83.2031ZM92.1328 129.641V147.653H88.7578V129.641H92.1328ZM100.125 134.973L94.6172 141.255L91.6641 144.243L90.4336 141.805L92.7773 138.829L96.0703 134.973H100.125ZM96.6211 147.653L92.8711 141.794L95.2031 139.755L100.512 147.653H96.6211ZM108.434 144.149C108.434 143.907 108.363 143.688 108.223 143.493C108.082 143.298 107.82 143.118 107.438 142.954C107.062 142.782 106.52 142.626 105.809 142.485C105.168 142.344 104.57 142.169 104.016 141.958C103.469 141.739 102.992 141.477 102.586 141.173C102.188 140.868 101.875 140.509 101.648 140.094C101.422 139.673 101.309 139.192 101.309 138.653C101.309 138.122 101.422 137.622 101.648 137.153C101.883 136.684 102.215 136.27 102.645 135.911C103.082 135.544 103.613 135.259 104.238 135.055C104.871 134.844 105.582 134.739 106.371 134.739C107.473 134.739 108.418 134.915 109.207 135.266C110.004 135.618 110.613 136.102 111.035 136.719C111.465 137.329 111.68 138.024 111.68 138.805H108.305C108.305 138.477 108.234 138.184 108.094 137.927C107.961 137.661 107.75 137.454 107.461 137.305C107.18 137.149 106.812 137.071 106.359 137.071C105.984 137.071 105.66 137.137 105.387 137.27C105.113 137.395 104.902 137.567 104.754 137.786C104.613 137.997 104.543 138.231 104.543 138.489C104.543 138.684 104.582 138.86 104.66 139.016C104.746 139.165 104.883 139.302 105.07 139.427C105.258 139.552 105.5 139.669 105.797 139.778C106.102 139.88 106.477 139.973 106.922 140.059C107.836 140.247 108.652 140.493 109.371 140.798C110.09 141.094 110.66 141.501 111.082 142.016C111.504 142.524 111.715 143.192 111.715 144.02C111.715 144.583 111.59 145.098 111.34 145.567C111.09 146.036 110.73 146.446 110.262 146.798C109.793 147.141 109.23 147.411 108.574 147.606C107.926 147.794 107.195 147.887 106.383 147.887C105.203 147.887 104.203 147.677 103.383 147.255C102.57 146.833 101.953 146.298 101.531 145.649C101.117 144.993 100.91 144.321 100.91 143.634H104.109C104.125 144.094 104.242 144.466 104.461 144.747C104.688 145.028 104.973 145.231 105.316 145.356C105.668 145.481 106.047 145.544 106.453 145.544C106.891 145.544 107.254 145.485 107.543 145.368C107.832 145.243 108.051 145.079 108.199 144.876C108.355 144.665 108.434 144.423 108.434 144.149ZM117.469 134.973V147.653H114.082V134.973H117.469ZM113.871 131.669C113.871 131.177 114.043 130.77 114.387 130.45C114.73 130.13 115.191 129.969 115.77 129.969C116.34 129.969 116.797 130.13 117.141 130.45C117.492 130.77 117.668 131.177 117.668 131.669C117.668 132.161 117.492 132.567 117.141 132.887C116.797 133.208 116.34 133.368 115.77 133.368C115.191 133.368 114.73 133.208 114.387 132.887C114.043 132.567 113.871 132.161 113.871 131.669ZM123.562 137.68V147.653H120.188V134.973H123.352L123.562 137.68ZM123.07 140.868H122.156C122.156 139.93 122.277 139.087 122.52 138.337C122.762 137.579 123.102 136.934 123.539 136.403C123.977 135.864 124.496 135.454 125.098 135.173C125.707 134.884 126.387 134.739 127.137 134.739C127.73 134.739 128.273 134.825 128.766 134.997C129.258 135.169 129.68 135.442 130.031 135.817C130.391 136.192 130.664 136.688 130.852 137.305C131.047 137.923 131.145 138.677 131.145 139.567V147.653H127.746V139.555C127.746 138.993 127.668 138.555 127.512 138.243C127.355 137.93 127.125 137.712 126.82 137.587C126.523 137.454 126.156 137.387 125.719 137.387C125.266 137.387 124.871 137.477 124.535 137.657C124.207 137.837 123.934 138.087 123.715 138.407C123.504 138.719 123.344 139.087 123.234 139.509C123.125 139.93 123.07 140.384 123.07 140.868Z" fill="#0D5389"/>
</svg>
