<svg width="115" height="113" viewBox="0 0 115 113" fill="none" xmlns="http://www.w3.org/2000/svg">
<path d="M4.65717 68.7416C4.65717 63.4376 5.70186 58.1851 7.73173 53.2849C9.76162 48.3843 12.7367 43.9317 16.4874 40.181C20.2381 36.4304 24.6906 33.4552 29.591 31.4253C34.4917 29.3957 39.7439 28.3508 45.0482 28.3508V68.7416H4.65717Z" fill="#442781"/>
<path d="M4.65717 68.7416C4.65717 74.0459 5.70186 79.2981 7.73173 84.1987C9.76162 89.0992 12.7367 93.5518 16.4874 97.3024C20.2381 101.053 24.6906 104.028 29.591 106.058C34.4917 108.088 39.7439 109.133 45.0482 109.133V68.7416H4.65717Z" fill="#61459C"/>
<path d="M85.4386 68.7416C85.4386 74.0459 84.3946 79.2981 82.365 84.1987C80.3351 89.0992 77.3602 93.5518 73.6088 97.3024C69.8582 101.053 65.4056 104.028 60.5049 106.058C55.6047 108.088 50.3523 109.133 45.0482 109.133V68.7416H85.4386Z" fill="#A992DB"/>
<path d="M110.343 33.8475C110.343 50.5967 96.7643 64.1747 80.0154 64.1747H49.6885V33.8475C49.6885 17.0984 63.2665 3.52039 80.0154 3.52039C96.7643 3.52039 110.343 17.0984 110.343 33.8475Z" fill="#FF7917"/>
</svg>
